G04 #@! TF.GenerationSoftware,KiCad,Pcbnew,(5.1.6-0-10_14)*
G04 #@! TF.CreationDate,2020-11-02T13:07:56+01:00*
G04 #@! TF.ProjectId,bolidjs,626f6c69-646a-4732-9e6b-696361645f70,1.0*
G04 #@! TF.SameCoordinates,Original*
G04 #@! TF.FileFunction,Soldermask,Top*
G04 #@! TF.FilePolarity,Negative*
%FSLAX46Y46*%
G04 Gerber Fmt 4.6, Leading zero omitted, Abs format (unit mm)*
G04 Created by KiCad (PCBNEW (5.1.6-0-10_14)) date 2020-11-02 13:07:56*
%MOMM*%
%LPD*%
G01*
G04 APERTURE LIST*
%ADD10R,1.800000X1.800000*%
%ADD11O,5.200000X1.100000*%
%ADD12C,0.922960*%
%ADD13C,1.014400*%
%ADD14C,1.624000*%
%ADD15R,1.700000X1.700000*%
%ADD16C,1.700000*%
%ADD17R,1.900000X1.900000*%
%ADD18C,1.900000*%
%ADD19O,1.800000X1.800000*%
%ADD20R,1.800000X4.540000*%
%ADD21O,1.624000X4.672000*%
%ADD22R,2.500000X2.500000*%
%ADD23O,2.500000X2.500000*%
%ADD24R,2.900000X2.900000*%
%ADD25O,2.900000X2.900000*%
G04 APERTURE END LIST*
D10*
X172466000Y-68326000D03*
X165100000Y-68326000D03*
X172466000Y-84074000D03*
X165100000Y-84074000D03*
X171450000Y-95758000D03*
X117475000Y-102235000D03*
X104140000Y-102235000D03*
X162560000Y-95758000D03*
X163195000Y-53594000D03*
X163195000Y-57785000D03*
X170561000Y-53594000D03*
X170561000Y-57785000D03*
X89916000Y-60833000D03*
X85725000Y-60833000D03*
X89916000Y-53467000D03*
X85725000Y-53467000D03*
X176657000Y-95758000D03*
X164592000Y-95758000D03*
X167843200Y-95758000D03*
X172466000Y-103124000D03*
X176657000Y-103124000D03*
X173482000Y-95758000D03*
X167845000Y-103378000D03*
X163576000Y-103378000D03*
D11*
X103886000Y-84836000D03*
X93081600Y-84836000D03*
D12*
X100196000Y-87172800D03*
X98866000Y-86360000D03*
X97536000Y-87172800D03*
X96206000Y-86360000D03*
D13*
X119380000Y-85725000D03*
X120650000Y-85725000D03*
D14*
X123190000Y-63500000D03*
X123190000Y-66040000D03*
X123190000Y-68580000D03*
X123190000Y-71120000D03*
X123190000Y-73660000D03*
X123190000Y-76200000D03*
X123190000Y-78740000D03*
X123190000Y-81280000D03*
X123190000Y-83820000D03*
X123190000Y-86360000D03*
X123190000Y-88900000D03*
X120650000Y-88900000D03*
X118110000Y-88900000D03*
X115570000Y-88900000D03*
X113030000Y-88900000D03*
X110490000Y-88900000D03*
X107950000Y-88900000D03*
X107950000Y-86360000D03*
X107950000Y-83820000D03*
X107950000Y-81280000D03*
X107950000Y-78740000D03*
X107950000Y-76200000D03*
X107950000Y-73660000D03*
X107950000Y-71120000D03*
X107950000Y-68580000D03*
X107950000Y-66040000D03*
X107950000Y-63500000D03*
D15*
X104902000Y-94742000D03*
D16*
X104902000Y-97242000D03*
X160822000Y-63500000D03*
D15*
X163322000Y-63500000D03*
X102108000Y-60452000D03*
D16*
X99608000Y-60452000D03*
X104394000Y-72938000D03*
D15*
X104394000Y-75438000D03*
D16*
X127000000Y-88860000D03*
D15*
X127000000Y-86360000D03*
D17*
X173355000Y-65405000D03*
D18*
X173355000Y-62865000D03*
X173990000Y-86995000D03*
D17*
X173990000Y-89535000D03*
X79502000Y-58674000D03*
D18*
X79502000Y-61214000D03*
X79248000Y-93726000D03*
D17*
X79248000Y-91186000D03*
D19*
X126238000Y-66040000D03*
D10*
X126238000Y-63500000D03*
X99060000Y-103378000D03*
X78232000Y-103378000D03*
X88646000Y-103378000D03*
D20*
X86106000Y-97790000D03*
D10*
X85090000Y-103378000D03*
X92202000Y-103378000D03*
D20*
X91186000Y-97790000D03*
D10*
X79502000Y-87630000D03*
X79502000Y-64770000D03*
X79248000Y-76200000D03*
D19*
X131826000Y-83312000D03*
D10*
X131826000Y-85852000D03*
X149606000Y-86360000D03*
X91440000Y-68834000D03*
X149606000Y-83058000D03*
X91440000Y-82804000D03*
X78994000Y-96266000D03*
X79248000Y-56134000D03*
X126492000Y-83312000D03*
D19*
X129032000Y-83312000D03*
D10*
X105664000Y-55118000D03*
D19*
X105664000Y-57658000D03*
X105664000Y-60198000D03*
D21*
X158750000Y-57150000D03*
X108585000Y-57150000D03*
X126365000Y-76200000D03*
X176530000Y-76200000D03*
X107950000Y-95250000D03*
X158115000Y-95250000D03*
D22*
X142240000Y-62484000D03*
D23*
X142240000Y-88484000D03*
D24*
X129794000Y-67310000D03*
D25*
X139954000Y-67310000D03*
D24*
X139192000Y-63500000D03*
D25*
X129032000Y-63500000D03*
M02*
