%TF.GenerationSoftware,KiCad,Pcbnew,(5.1.6-0-10_14)*%
%TF.CreationDate,2020-10-29T17:49:45+01:00*%
%TF.ProjectId,bolidjs,626f6c69-646a-4732-9e6b-696361645f70,1.0*%
%TF.SameCoordinates,Original*%
%TF.FileFunction,Legend,Bot*%
%TF.FilePolarity,Positive*%
%FSLAX46Y46*%
G04 Gerber Fmt 4.6, Leading zero omitted, Abs format (unit mm)*
G04 Created by KiCad (PCBNEW (5.1.6-0-10_14)) date 2020-10-29 17:49:45*
%MOMM*%
%LPD*%
G01*
G04 APERTURE LIST*
%ADD10C,0.750000*%
%ADD11C,0.600000*%
%ADD12C,0.150000*%
%ADD13C,0.450000*%
%ADD14C,0.120000*%
%ADD15C,0.152400*%
G04 APERTURE END LIST*
D10*
X87473832Y-78994000D02*
G75*
G03*
X87473832Y-78994000I-1367832J0D01*
G01*
D11*
X98806000Y-75692000D02*
X96774000Y-75692000D01*
D12*
X92202000Y-77216000D02*
X94742000Y-77216000D01*
D11*
X82550000Y-77724000D02*
X82550000Y-78232000D01*
D12*
X84582000Y-78740000D02*
X85598000Y-77724000D01*
D11*
X82550000Y-78232000D02*
X83058000Y-78740000D01*
X93726000Y-75692000D02*
X92202000Y-75692000D01*
X83566000Y-79756000D02*
X82042000Y-79756000D01*
X94742000Y-77216000D02*
X93726000Y-75692000D01*
X92158420Y-76454000D02*
G75*
G03*
X92158420Y-76454000I-718420J0D01*
G01*
D10*
X97633832Y-78994000D02*
G75*
G03*
X97633832Y-78994000I-1367832J0D01*
G01*
D11*
X83058000Y-78740000D02*
X84582000Y-78740000D01*
D12*
X92202000Y-75692000D02*
X92202000Y-77216000D01*
D11*
X87630000Y-78740000D02*
X90170000Y-78740000D01*
X83058000Y-77216000D02*
X82550000Y-77724000D01*
D12*
X85598000Y-77724000D02*
X86614000Y-77724000D01*
D11*
X90170000Y-78740000D02*
X90170000Y-77216000D01*
X83566000Y-78740000D02*
X83566000Y-79756000D01*
D12*
X86614000Y-77724000D02*
X87630000Y-78740000D01*
X96774000Y-77724000D02*
X97790000Y-78740000D01*
X95758000Y-77216000D02*
X94742000Y-79756000D01*
D11*
X90170000Y-77216000D02*
X83058000Y-77216000D01*
X97790000Y-78740000D02*
X98806000Y-78740000D01*
X90170000Y-79756000D02*
X90170000Y-77216000D01*
X94742000Y-79756000D02*
X90170000Y-79756000D01*
X90170000Y-77216000D02*
X95758000Y-77216000D01*
X98806000Y-78740000D02*
X98806000Y-75692000D01*
X96774000Y-75692000D02*
X96774000Y-77724000D01*
D13*
X97503428Y-73191714D02*
X97074857Y-73334571D01*
X96932000Y-73477428D01*
X96789142Y-73763142D01*
X96789142Y-74191714D01*
X96932000Y-74477428D01*
X97074857Y-74620285D01*
X97360571Y-74763142D01*
X98503428Y-74763142D01*
X98503428Y-71763142D01*
X97503428Y-71763142D01*
X97217714Y-71906000D01*
X97074857Y-72048857D01*
X96932000Y-72334571D01*
X96932000Y-72620285D01*
X97074857Y-72906000D01*
X97217714Y-73048857D01*
X97503428Y-73191714D01*
X98503428Y-73191714D01*
X95074857Y-74763142D02*
X95360571Y-74620285D01*
X95503428Y-74477428D01*
X95646285Y-74191714D01*
X95646285Y-73334571D01*
X95503428Y-73048857D01*
X95360571Y-72906000D01*
X95074857Y-72763142D01*
X94646285Y-72763142D01*
X94360571Y-72906000D01*
X94217714Y-73048857D01*
X94074857Y-73334571D01*
X94074857Y-74191714D01*
X94217714Y-74477428D01*
X94360571Y-74620285D01*
X94646285Y-74763142D01*
X95074857Y-74763142D01*
X92360571Y-74763142D02*
X92646285Y-74620285D01*
X92789142Y-74334571D01*
X92789142Y-71763142D01*
X91217714Y-74763142D02*
X91217714Y-72763142D01*
X91217714Y-71763142D02*
X91360571Y-71906000D01*
X91217714Y-72048857D01*
X91074857Y-71906000D01*
X91217714Y-71763142D01*
X91217714Y-72048857D01*
X88503428Y-74763142D02*
X88503428Y-71763142D01*
X88503428Y-74620285D02*
X88789142Y-74763142D01*
X89360571Y-74763142D01*
X89646285Y-74620285D01*
X89789142Y-74477428D01*
X89932000Y-74191714D01*
X89932000Y-73334571D01*
X89789142Y-73048857D01*
X89646285Y-72906000D01*
X89360571Y-72763142D01*
X88789142Y-72763142D01*
X88503428Y-72906000D01*
X86217714Y-71763142D02*
X86217714Y-73906000D01*
X86360571Y-74334571D01*
X86646285Y-74620285D01*
X87074857Y-74763142D01*
X87360571Y-74763142D01*
X84932000Y-74620285D02*
X84503428Y-74763142D01*
X83789142Y-74763142D01*
X83503428Y-74620285D01*
X83360571Y-74477428D01*
X83217714Y-74191714D01*
X83217714Y-73906000D01*
X83360571Y-73620285D01*
X83503428Y-73477428D01*
X83789142Y-73334571D01*
X84360571Y-73191714D01*
X84646285Y-73048857D01*
X84789142Y-72906000D01*
X84932000Y-72620285D01*
X84932000Y-72334571D01*
X84789142Y-72048857D01*
X84646285Y-71906000D01*
X84360571Y-71763142D01*
X83646285Y-71763142D01*
X83217714Y-71906000D01*
D14*
%TO.C,R7*%
X136944000Y-64704000D02*
X136944000Y-65304000D01*
X135344000Y-64724000D02*
X135344000Y-65324000D01*
%TO.C,C3*%
X101138000Y-61938000D02*
X100538000Y-61938000D01*
X101158000Y-63538000D02*
X100558000Y-63538000D01*
%TO.C,C9*%
X154620000Y-63970000D02*
X155220000Y-63970000D01*
X154640000Y-65570000D02*
X155240000Y-65570000D01*
%TO.C,C10*%
X124295000Y-87330000D02*
X124295000Y-87930000D01*
X125895000Y-87310000D02*
X125895000Y-87910000D01*
%TO.C,C11*%
X103444000Y-87922000D02*
X102844000Y-87922000D01*
X103424000Y-86322000D02*
X102824000Y-86322000D01*
%TO.C,C12*%
X102916000Y-76924000D02*
X102316000Y-76924000D01*
X102936000Y-78524000D02*
X102336000Y-78524000D01*
%TO.C,C13*%
X115250000Y-76924000D02*
X115850000Y-76924000D01*
X115270000Y-78524000D02*
X115870000Y-78524000D01*
%TO.C,R1*%
X169606000Y-62192000D02*
X170206000Y-62192000D01*
X169626000Y-63792000D02*
X170226000Y-63792000D01*
%TO.C,R2*%
X169880000Y-87795000D02*
X170480000Y-87795000D01*
X169860000Y-86195000D02*
X170460000Y-86195000D01*
%TO.C,R3*%
X81242000Y-61788000D02*
X81242000Y-61188000D01*
X82842000Y-61768000D02*
X82842000Y-61168000D01*
%TO.C,R4*%
X80988000Y-92156000D02*
X80988000Y-92756000D01*
X82588000Y-92136000D02*
X82588000Y-92736000D01*
%TO.C,R5*%
X115890000Y-76238000D02*
X115290000Y-76238000D01*
X115870000Y-74638000D02*
X115270000Y-74638000D01*
%TO.C,R6*%
X115270000Y-80810000D02*
X115870000Y-80810000D01*
X115250000Y-79210000D02*
X115850000Y-79210000D01*
D15*
%TO.C,U2*%
X104444800Y-93256100D02*
X100279200Y-93256100D01*
X100279200Y-88099900D02*
X104444800Y-88099900D01*
X98506801Y-88487499D02*
X98506801Y-88868499D01*
X98506801Y-88868499D02*
X98760801Y-88868499D01*
X98760801Y-88868499D02*
X98760801Y-88487499D01*
X98760801Y-88487499D02*
X98506801Y-88487499D01*
%TO.C,U3*%
X99014801Y-79343499D02*
X98760801Y-79343499D01*
X99014801Y-79724499D02*
X99014801Y-79343499D01*
X98760801Y-79724499D02*
X99014801Y-79724499D01*
X98760801Y-79343499D02*
X98760801Y-79724499D01*
X100533200Y-78955900D02*
X104698800Y-78955900D01*
X104698800Y-84112100D02*
X100533200Y-84112100D01*
%TO.C,U4*%
X152857200Y-66001900D02*
X157022800Y-66001900D01*
X157022800Y-71158100D02*
X152857200Y-71158100D01*
X158795199Y-70770501D02*
X158795199Y-70389501D01*
X158795199Y-70389501D02*
X158541199Y-70389501D01*
X158541199Y-70389501D02*
X158541199Y-70770501D01*
X158541199Y-70770501D02*
X158795199Y-70770501D01*
%TO.C,U5*%
X96728801Y-64357499D02*
X96474801Y-64357499D01*
X96728801Y-64738499D02*
X96728801Y-64357499D01*
X96474801Y-64738499D02*
X96728801Y-64738499D01*
X96474801Y-64357499D02*
X96474801Y-64738499D01*
X98247200Y-63969900D02*
X102412800Y-63969900D01*
X102412800Y-69126100D02*
X98247200Y-69126100D01*
%TO.C,R7*%
D12*
X134756380Y-64857333D02*
X134280190Y-64524000D01*
X134756380Y-64285904D02*
X133756380Y-64285904D01*
X133756380Y-64666857D01*
X133804000Y-64762095D01*
X133851619Y-64809714D01*
X133946857Y-64857333D01*
X134089714Y-64857333D01*
X134184952Y-64809714D01*
X134232571Y-64762095D01*
X134280190Y-64666857D01*
X134280190Y-64285904D01*
X133756380Y-65190666D02*
X133756380Y-65857333D01*
X134756380Y-65428761D01*
%TO.C,C3*%
X101004666Y-61255142D02*
X101052285Y-61302761D01*
X101195142Y-61350380D01*
X101290380Y-61350380D01*
X101433238Y-61302761D01*
X101528476Y-61207523D01*
X101576095Y-61112285D01*
X101623714Y-60921809D01*
X101623714Y-60778952D01*
X101576095Y-60588476D01*
X101528476Y-60493238D01*
X101433238Y-60398000D01*
X101290380Y-60350380D01*
X101195142Y-60350380D01*
X101052285Y-60398000D01*
X101004666Y-60445619D01*
X100671333Y-60350380D02*
X100052285Y-60350380D01*
X100385619Y-60731333D01*
X100242761Y-60731333D01*
X100147523Y-60778952D01*
X100099904Y-60826571D01*
X100052285Y-60921809D01*
X100052285Y-61159904D01*
X100099904Y-61255142D01*
X100147523Y-61302761D01*
X100242761Y-61350380D01*
X100528476Y-61350380D01*
X100623714Y-61302761D01*
X100671333Y-61255142D01*
%TO.C,C9*%
X155106666Y-66967142D02*
X155154285Y-67014761D01*
X155297142Y-67062380D01*
X155392380Y-67062380D01*
X155535238Y-67014761D01*
X155630476Y-66919523D01*
X155678095Y-66824285D01*
X155725714Y-66633809D01*
X155725714Y-66490952D01*
X155678095Y-66300476D01*
X155630476Y-66205238D01*
X155535238Y-66110000D01*
X155392380Y-66062380D01*
X155297142Y-66062380D01*
X155154285Y-66110000D01*
X155106666Y-66157619D01*
X154630476Y-67062380D02*
X154440000Y-67062380D01*
X154344761Y-67014761D01*
X154297142Y-66967142D01*
X154201904Y-66824285D01*
X154154285Y-66633809D01*
X154154285Y-66252857D01*
X154201904Y-66157619D01*
X154249523Y-66110000D01*
X154344761Y-66062380D01*
X154535238Y-66062380D01*
X154630476Y-66110000D01*
X154678095Y-66157619D01*
X154725714Y-66252857D01*
X154725714Y-66490952D01*
X154678095Y-66586190D01*
X154630476Y-66633809D01*
X154535238Y-66681428D01*
X154344761Y-66681428D01*
X154249523Y-66633809D01*
X154201904Y-66586190D01*
X154154285Y-66490952D01*
%TO.C,C10*%
X123612142Y-86987142D02*
X123659761Y-86939523D01*
X123707380Y-86796666D01*
X123707380Y-86701428D01*
X123659761Y-86558571D01*
X123564523Y-86463333D01*
X123469285Y-86415714D01*
X123278809Y-86368095D01*
X123135952Y-86368095D01*
X122945476Y-86415714D01*
X122850238Y-86463333D01*
X122755000Y-86558571D01*
X122707380Y-86701428D01*
X122707380Y-86796666D01*
X122755000Y-86939523D01*
X122802619Y-86987142D01*
X123707380Y-87939523D02*
X123707380Y-87368095D01*
X123707380Y-87653809D02*
X122707380Y-87653809D01*
X122850238Y-87558571D01*
X122945476Y-87463333D01*
X122993095Y-87368095D01*
X122707380Y-88558571D02*
X122707380Y-88653809D01*
X122755000Y-88749047D01*
X122802619Y-88796666D01*
X122897857Y-88844285D01*
X123088333Y-88891904D01*
X123326428Y-88891904D01*
X123516904Y-88844285D01*
X123612142Y-88796666D01*
X123659761Y-88749047D01*
X123707380Y-88653809D01*
X123707380Y-88558571D01*
X123659761Y-88463333D01*
X123612142Y-88415714D01*
X123516904Y-88368095D01*
X123326428Y-88320476D01*
X123088333Y-88320476D01*
X122897857Y-88368095D01*
X122802619Y-88415714D01*
X122755000Y-88463333D01*
X122707380Y-88558571D01*
%TO.C,C11*%
X103766857Y-85639142D02*
X103814476Y-85686761D01*
X103957333Y-85734380D01*
X104052571Y-85734380D01*
X104195428Y-85686761D01*
X104290666Y-85591523D01*
X104338285Y-85496285D01*
X104385904Y-85305809D01*
X104385904Y-85162952D01*
X104338285Y-84972476D01*
X104290666Y-84877238D01*
X104195428Y-84782000D01*
X104052571Y-84734380D01*
X103957333Y-84734380D01*
X103814476Y-84782000D01*
X103766857Y-84829619D01*
X102814476Y-85734380D02*
X103385904Y-85734380D01*
X103100190Y-85734380D02*
X103100190Y-84734380D01*
X103195428Y-84877238D01*
X103290666Y-84972476D01*
X103385904Y-85020095D01*
X101862095Y-85734380D02*
X102433523Y-85734380D01*
X102147809Y-85734380D02*
X102147809Y-84734380D01*
X102243047Y-84877238D01*
X102338285Y-84972476D01*
X102433523Y-85020095D01*
%TO.C,C12*%
X103258857Y-76241142D02*
X103306476Y-76288761D01*
X103449333Y-76336380D01*
X103544571Y-76336380D01*
X103687428Y-76288761D01*
X103782666Y-76193523D01*
X103830285Y-76098285D01*
X103877904Y-75907809D01*
X103877904Y-75764952D01*
X103830285Y-75574476D01*
X103782666Y-75479238D01*
X103687428Y-75384000D01*
X103544571Y-75336380D01*
X103449333Y-75336380D01*
X103306476Y-75384000D01*
X103258857Y-75431619D01*
X102306476Y-76336380D02*
X102877904Y-76336380D01*
X102592190Y-76336380D02*
X102592190Y-75336380D01*
X102687428Y-75479238D01*
X102782666Y-75574476D01*
X102877904Y-75622095D01*
X101925523Y-75431619D02*
X101877904Y-75384000D01*
X101782666Y-75336380D01*
X101544571Y-75336380D01*
X101449333Y-75384000D01*
X101401714Y-75431619D01*
X101354095Y-75526857D01*
X101354095Y-75622095D01*
X101401714Y-75764952D01*
X101973142Y-76336380D01*
X101354095Y-76336380D01*
%TO.C,C13*%
X116212857Y-79921142D02*
X116260476Y-79968761D01*
X116403333Y-80016380D01*
X116498571Y-80016380D01*
X116641428Y-79968761D01*
X116736666Y-79873523D01*
X116784285Y-79778285D01*
X116831904Y-79587809D01*
X116831904Y-79444952D01*
X116784285Y-79254476D01*
X116736666Y-79159238D01*
X116641428Y-79064000D01*
X116498571Y-79016380D01*
X116403333Y-79016380D01*
X116260476Y-79064000D01*
X116212857Y-79111619D01*
X115260476Y-80016380D02*
X115831904Y-80016380D01*
X115546190Y-80016380D02*
X115546190Y-79016380D01*
X115641428Y-79159238D01*
X115736666Y-79254476D01*
X115831904Y-79302095D01*
X114927142Y-79016380D02*
X114308095Y-79016380D01*
X114641428Y-79397333D01*
X114498571Y-79397333D01*
X114403333Y-79444952D01*
X114355714Y-79492571D01*
X114308095Y-79587809D01*
X114308095Y-79825904D01*
X114355714Y-79921142D01*
X114403333Y-79968761D01*
X114498571Y-80016380D01*
X114784285Y-80016380D01*
X114879523Y-79968761D01*
X114927142Y-79921142D01*
%TO.C,R1*%
X170092666Y-65284380D02*
X170426000Y-64808190D01*
X170664095Y-65284380D02*
X170664095Y-64284380D01*
X170283142Y-64284380D01*
X170187904Y-64332000D01*
X170140285Y-64379619D01*
X170092666Y-64474857D01*
X170092666Y-64617714D01*
X170140285Y-64712952D01*
X170187904Y-64760571D01*
X170283142Y-64808190D01*
X170664095Y-64808190D01*
X169140285Y-65284380D02*
X169711714Y-65284380D01*
X169426000Y-65284380D02*
X169426000Y-64284380D01*
X169521238Y-64427238D01*
X169616476Y-64522476D01*
X169711714Y-64570095D01*
%TO.C,R2*%
X170346666Y-89287380D02*
X170680000Y-88811190D01*
X170918095Y-89287380D02*
X170918095Y-88287380D01*
X170537142Y-88287380D01*
X170441904Y-88335000D01*
X170394285Y-88382619D01*
X170346666Y-88477857D01*
X170346666Y-88620714D01*
X170394285Y-88715952D01*
X170441904Y-88763571D01*
X170537142Y-88811190D01*
X170918095Y-88811190D01*
X169965714Y-88382619D02*
X169918095Y-88335000D01*
X169822857Y-88287380D01*
X169584761Y-88287380D01*
X169489523Y-88335000D01*
X169441904Y-88382619D01*
X169394285Y-88477857D01*
X169394285Y-88573095D01*
X169441904Y-88715952D01*
X170013333Y-89287380D01*
X169394285Y-89287380D01*
%TO.C,R3*%
X84334380Y-61301333D02*
X83858190Y-60968000D01*
X84334380Y-60729904D02*
X83334380Y-60729904D01*
X83334380Y-61110857D01*
X83382000Y-61206095D01*
X83429619Y-61253714D01*
X83524857Y-61301333D01*
X83667714Y-61301333D01*
X83762952Y-61253714D01*
X83810571Y-61206095D01*
X83858190Y-61110857D01*
X83858190Y-60729904D01*
X83334380Y-61634666D02*
X83334380Y-62253714D01*
X83715333Y-61920380D01*
X83715333Y-62063238D01*
X83762952Y-62158476D01*
X83810571Y-62206095D01*
X83905809Y-62253714D01*
X84143904Y-62253714D01*
X84239142Y-62206095D01*
X84286761Y-62158476D01*
X84334380Y-62063238D01*
X84334380Y-61777523D01*
X84286761Y-61682285D01*
X84239142Y-61634666D01*
%TO.C,R4*%
X80400380Y-92289333D02*
X79924190Y-91956000D01*
X80400380Y-91717904D02*
X79400380Y-91717904D01*
X79400380Y-92098857D01*
X79448000Y-92194095D01*
X79495619Y-92241714D01*
X79590857Y-92289333D01*
X79733714Y-92289333D01*
X79828952Y-92241714D01*
X79876571Y-92194095D01*
X79924190Y-92098857D01*
X79924190Y-91717904D01*
X79733714Y-93146476D02*
X80400380Y-93146476D01*
X79352761Y-92908380D02*
X80067047Y-92670285D01*
X80067047Y-93289333D01*
%TO.C,R5*%
X115736666Y-74050380D02*
X116070000Y-73574190D01*
X116308095Y-74050380D02*
X116308095Y-73050380D01*
X115927142Y-73050380D01*
X115831904Y-73098000D01*
X115784285Y-73145619D01*
X115736666Y-73240857D01*
X115736666Y-73383714D01*
X115784285Y-73478952D01*
X115831904Y-73526571D01*
X115927142Y-73574190D01*
X116308095Y-73574190D01*
X114831904Y-73050380D02*
X115308095Y-73050380D01*
X115355714Y-73526571D01*
X115308095Y-73478952D01*
X115212857Y-73431333D01*
X114974761Y-73431333D01*
X114879523Y-73478952D01*
X114831904Y-73526571D01*
X114784285Y-73621809D01*
X114784285Y-73859904D01*
X114831904Y-73955142D01*
X114879523Y-74002761D01*
X114974761Y-74050380D01*
X115212857Y-74050380D01*
X115308095Y-74002761D01*
X115355714Y-73955142D01*
%TO.C,R6*%
X115736666Y-82302380D02*
X116070000Y-81826190D01*
X116308095Y-82302380D02*
X116308095Y-81302380D01*
X115927142Y-81302380D01*
X115831904Y-81350000D01*
X115784285Y-81397619D01*
X115736666Y-81492857D01*
X115736666Y-81635714D01*
X115784285Y-81730952D01*
X115831904Y-81778571D01*
X115927142Y-81826190D01*
X116308095Y-81826190D01*
X114879523Y-81302380D02*
X115070000Y-81302380D01*
X115165238Y-81350000D01*
X115212857Y-81397619D01*
X115308095Y-81540476D01*
X115355714Y-81730952D01*
X115355714Y-82111904D01*
X115308095Y-82207142D01*
X115260476Y-82254761D01*
X115165238Y-82302380D01*
X114974761Y-82302380D01*
X114879523Y-82254761D01*
X114831904Y-82207142D01*
X114784285Y-82111904D01*
X114784285Y-81873809D01*
X114831904Y-81778571D01*
X114879523Y-81730952D01*
X114974761Y-81683333D01*
X115165238Y-81683333D01*
X115260476Y-81730952D01*
X115308095Y-81778571D01*
X115355714Y-81873809D01*
%TO.C,U2*%
X103123904Y-90130380D02*
X103123904Y-90939904D01*
X103076285Y-91035142D01*
X103028666Y-91082761D01*
X102933428Y-91130380D01*
X102742952Y-91130380D01*
X102647714Y-91082761D01*
X102600095Y-91035142D01*
X102552476Y-90939904D01*
X102552476Y-90130380D01*
X102123904Y-90225619D02*
X102076285Y-90178000D01*
X101981047Y-90130380D01*
X101742952Y-90130380D01*
X101647714Y-90178000D01*
X101600095Y-90225619D01*
X101552476Y-90320857D01*
X101552476Y-90416095D01*
X101600095Y-90558952D01*
X102171523Y-91130380D01*
X101552476Y-91130380D01*
X107100095Y-91130380D02*
X107576285Y-91130380D01*
X107576285Y-90130380D01*
X106433428Y-90606571D02*
X106290571Y-90654190D01*
X106242952Y-90701809D01*
X106195333Y-90797047D01*
X106195333Y-90939904D01*
X106242952Y-91035142D01*
X106290571Y-91082761D01*
X106385809Y-91130380D01*
X106766761Y-91130380D01*
X106766761Y-90130380D01*
X106433428Y-90130380D01*
X106338190Y-90178000D01*
X106290571Y-90225619D01*
X106242952Y-90320857D01*
X106242952Y-90416095D01*
X106290571Y-90511333D01*
X106338190Y-90558952D01*
X106433428Y-90606571D01*
X106766761Y-90606571D01*
X105242952Y-91130380D02*
X105814380Y-91130380D01*
X105528666Y-91130380D02*
X105528666Y-90130380D01*
X105623904Y-90273238D01*
X105719142Y-90368476D01*
X105814380Y-90416095D01*
X104766761Y-91130380D02*
X104576285Y-91130380D01*
X104481047Y-91082761D01*
X104433428Y-91035142D01*
X104338190Y-90892285D01*
X104290571Y-90701809D01*
X104290571Y-90320857D01*
X104338190Y-90225619D01*
X104385809Y-90178000D01*
X104481047Y-90130380D01*
X104671523Y-90130380D01*
X104766761Y-90178000D01*
X104814380Y-90225619D01*
X104862000Y-90320857D01*
X104862000Y-90558952D01*
X104814380Y-90654190D01*
X104766761Y-90701809D01*
X104671523Y-90749428D01*
X104481047Y-90749428D01*
X104385809Y-90701809D01*
X104338190Y-90654190D01*
X104290571Y-90558952D01*
X103957238Y-90130380D02*
X103338190Y-90130380D01*
X103671523Y-90511333D01*
X103528666Y-90511333D01*
X103433428Y-90558952D01*
X103385809Y-90606571D01*
X103338190Y-90701809D01*
X103338190Y-90939904D01*
X103385809Y-91035142D01*
X103433428Y-91082761D01*
X103528666Y-91130380D01*
X103814380Y-91130380D01*
X103909619Y-91082761D01*
X103957238Y-91035142D01*
X102719142Y-90130380D02*
X102623904Y-90130380D01*
X102528666Y-90178000D01*
X102481047Y-90225619D01*
X102433428Y-90320857D01*
X102385809Y-90511333D01*
X102385809Y-90749428D01*
X102433428Y-90939904D01*
X102481047Y-91035142D01*
X102528666Y-91082761D01*
X102623904Y-91130380D01*
X102719142Y-91130380D01*
X102814380Y-91082761D01*
X102862000Y-91035142D01*
X102909619Y-90939904D01*
X102957238Y-90749428D01*
X102957238Y-90511333D01*
X102909619Y-90320857D01*
X102862000Y-90225619D01*
X102814380Y-90178000D01*
X102719142Y-90130380D01*
X101957238Y-91130380D02*
X101957238Y-90130380D01*
X101623904Y-90844666D01*
X101290571Y-90130380D01*
X101290571Y-91130380D01*
X100242952Y-91035142D02*
X100290571Y-91082761D01*
X100433428Y-91130380D01*
X100528666Y-91130380D01*
X100671523Y-91082761D01*
X100766761Y-90987523D01*
X100814380Y-90892285D01*
X100862000Y-90701809D01*
X100862000Y-90558952D01*
X100814380Y-90368476D01*
X100766761Y-90273238D01*
X100671523Y-90178000D01*
X100528666Y-90130380D01*
X100433428Y-90130380D01*
X100290571Y-90178000D01*
X100242952Y-90225619D01*
X99814380Y-90749428D02*
X99052476Y-90749428D01*
X98623904Y-90844666D02*
X98147714Y-90844666D01*
X98719142Y-91130380D02*
X98385809Y-90130380D01*
X98052476Y-91130380D01*
X97719142Y-91130380D02*
X97719142Y-90130380D01*
X97719142Y-90606571D02*
X97147714Y-90606571D01*
X97147714Y-91130380D02*
X97147714Y-90130380D01*
X105267500Y-86530980D02*
X105267500Y-86769076D01*
X105505595Y-86673838D02*
X105267500Y-86769076D01*
X105029404Y-86673838D01*
X105410357Y-86959552D02*
X105267500Y-86769076D01*
X105124642Y-86959552D01*
X105267500Y-86530980D02*
X105267500Y-86769076D01*
X105505595Y-86673838D02*
X105267500Y-86769076D01*
X105029404Y-86673838D01*
X105410357Y-86959552D02*
X105267500Y-86769076D01*
X105124642Y-86959552D01*
%TO.C,U3*%
X103377904Y-80986380D02*
X103377904Y-81795904D01*
X103330285Y-81891142D01*
X103282666Y-81938761D01*
X103187428Y-81986380D01*
X102996952Y-81986380D01*
X102901714Y-81938761D01*
X102854095Y-81891142D01*
X102806476Y-81795904D01*
X102806476Y-80986380D01*
X102425523Y-80986380D02*
X101806476Y-80986380D01*
X102139809Y-81367333D01*
X101996952Y-81367333D01*
X101901714Y-81414952D01*
X101854095Y-81462571D01*
X101806476Y-81557809D01*
X101806476Y-81795904D01*
X101854095Y-81891142D01*
X101901714Y-81938761D01*
X101996952Y-81986380D01*
X102282666Y-81986380D01*
X102377904Y-81938761D01*
X102425523Y-81891142D01*
X107354095Y-81986380D02*
X107830285Y-81986380D01*
X107830285Y-80986380D01*
X106687428Y-81462571D02*
X106544571Y-81510190D01*
X106496952Y-81557809D01*
X106449333Y-81653047D01*
X106449333Y-81795904D01*
X106496952Y-81891142D01*
X106544571Y-81938761D01*
X106639809Y-81986380D01*
X107020761Y-81986380D01*
X107020761Y-80986380D01*
X106687428Y-80986380D01*
X106592190Y-81034000D01*
X106544571Y-81081619D01*
X106496952Y-81176857D01*
X106496952Y-81272095D01*
X106544571Y-81367333D01*
X106592190Y-81414952D01*
X106687428Y-81462571D01*
X107020761Y-81462571D01*
X105496952Y-81986380D02*
X106068380Y-81986380D01*
X105782666Y-81986380D02*
X105782666Y-80986380D01*
X105877904Y-81129238D01*
X105973142Y-81224476D01*
X106068380Y-81272095D01*
X105020761Y-81986380D02*
X104830285Y-81986380D01*
X104735047Y-81938761D01*
X104687428Y-81891142D01*
X104592190Y-81748285D01*
X104544571Y-81557809D01*
X104544571Y-81176857D01*
X104592190Y-81081619D01*
X104639809Y-81034000D01*
X104735047Y-80986380D01*
X104925523Y-80986380D01*
X105020761Y-81034000D01*
X105068380Y-81081619D01*
X105116000Y-81176857D01*
X105116000Y-81414952D01*
X105068380Y-81510190D01*
X105020761Y-81557809D01*
X104925523Y-81605428D01*
X104735047Y-81605428D01*
X104639809Y-81557809D01*
X104592190Y-81510190D01*
X104544571Y-81414952D01*
X104211238Y-80986380D02*
X103592190Y-80986380D01*
X103925523Y-81367333D01*
X103782666Y-81367333D01*
X103687428Y-81414952D01*
X103639809Y-81462571D01*
X103592190Y-81557809D01*
X103592190Y-81795904D01*
X103639809Y-81891142D01*
X103687428Y-81938761D01*
X103782666Y-81986380D01*
X104068380Y-81986380D01*
X104163619Y-81938761D01*
X104211238Y-81891142D01*
X102973142Y-80986380D02*
X102877904Y-80986380D01*
X102782666Y-81034000D01*
X102735047Y-81081619D01*
X102687428Y-81176857D01*
X102639809Y-81367333D01*
X102639809Y-81605428D01*
X102687428Y-81795904D01*
X102735047Y-81891142D01*
X102782666Y-81938761D01*
X102877904Y-81986380D01*
X102973142Y-81986380D01*
X103068380Y-81938761D01*
X103116000Y-81891142D01*
X103163619Y-81795904D01*
X103211238Y-81605428D01*
X103211238Y-81367333D01*
X103163619Y-81176857D01*
X103116000Y-81081619D01*
X103068380Y-81034000D01*
X102973142Y-80986380D01*
X102211238Y-81986380D02*
X102211238Y-80986380D01*
X101877904Y-81700666D01*
X101544571Y-80986380D01*
X101544571Y-81986380D01*
X100496952Y-81891142D02*
X100544571Y-81938761D01*
X100687428Y-81986380D01*
X100782666Y-81986380D01*
X100925523Y-81938761D01*
X101020761Y-81843523D01*
X101068380Y-81748285D01*
X101116000Y-81557809D01*
X101116000Y-81414952D01*
X101068380Y-81224476D01*
X101020761Y-81129238D01*
X100925523Y-81034000D01*
X100782666Y-80986380D01*
X100687428Y-80986380D01*
X100544571Y-81034000D01*
X100496952Y-81081619D01*
X100068380Y-81605428D02*
X99306476Y-81605428D01*
X98877904Y-81700666D02*
X98401714Y-81700666D01*
X98973142Y-81986380D02*
X98639809Y-80986380D01*
X98306476Y-81986380D01*
X97973142Y-81986380D02*
X97973142Y-80986380D01*
X97973142Y-81462571D02*
X97401714Y-81462571D01*
X97401714Y-81986380D02*
X97401714Y-80986380D01*
X105521500Y-77386980D02*
X105521500Y-77625076D01*
X105759595Y-77529838D02*
X105521500Y-77625076D01*
X105283404Y-77529838D01*
X105664357Y-77815552D02*
X105521500Y-77625076D01*
X105378642Y-77815552D01*
X105521500Y-77386980D02*
X105521500Y-77625076D01*
X105759595Y-77529838D02*
X105521500Y-77625076D01*
X105283404Y-77529838D01*
X105664357Y-77815552D02*
X105521500Y-77625076D01*
X105378642Y-77815552D01*
%TO.C,U4*%
X155701904Y-68032380D02*
X155701904Y-68841904D01*
X155654285Y-68937142D01*
X155606666Y-68984761D01*
X155511428Y-69032380D01*
X155320952Y-69032380D01*
X155225714Y-68984761D01*
X155178095Y-68937142D01*
X155130476Y-68841904D01*
X155130476Y-68032380D01*
X154225714Y-68365714D02*
X154225714Y-69032380D01*
X154463809Y-67984761D02*
X154701904Y-68699047D01*
X154082857Y-68699047D01*
X159678095Y-69032380D02*
X160154285Y-69032380D01*
X160154285Y-68032380D01*
X159011428Y-68508571D02*
X158868571Y-68556190D01*
X158820952Y-68603809D01*
X158773333Y-68699047D01*
X158773333Y-68841904D01*
X158820952Y-68937142D01*
X158868571Y-68984761D01*
X158963809Y-69032380D01*
X159344761Y-69032380D01*
X159344761Y-68032380D01*
X159011428Y-68032380D01*
X158916190Y-68080000D01*
X158868571Y-68127619D01*
X158820952Y-68222857D01*
X158820952Y-68318095D01*
X158868571Y-68413333D01*
X158916190Y-68460952D01*
X159011428Y-68508571D01*
X159344761Y-68508571D01*
X157820952Y-69032380D02*
X158392380Y-69032380D01*
X158106666Y-69032380D02*
X158106666Y-68032380D01*
X158201904Y-68175238D01*
X158297142Y-68270476D01*
X158392380Y-68318095D01*
X157344761Y-69032380D02*
X157154285Y-69032380D01*
X157059047Y-68984761D01*
X157011428Y-68937142D01*
X156916190Y-68794285D01*
X156868571Y-68603809D01*
X156868571Y-68222857D01*
X156916190Y-68127619D01*
X156963809Y-68080000D01*
X157059047Y-68032380D01*
X157249523Y-68032380D01*
X157344761Y-68080000D01*
X157392380Y-68127619D01*
X157440000Y-68222857D01*
X157440000Y-68460952D01*
X157392380Y-68556190D01*
X157344761Y-68603809D01*
X157249523Y-68651428D01*
X157059047Y-68651428D01*
X156963809Y-68603809D01*
X156916190Y-68556190D01*
X156868571Y-68460952D01*
X156535238Y-68032380D02*
X155916190Y-68032380D01*
X156249523Y-68413333D01*
X156106666Y-68413333D01*
X156011428Y-68460952D01*
X155963809Y-68508571D01*
X155916190Y-68603809D01*
X155916190Y-68841904D01*
X155963809Y-68937142D01*
X156011428Y-68984761D01*
X156106666Y-69032380D01*
X156392380Y-69032380D01*
X156487619Y-68984761D01*
X156535238Y-68937142D01*
X155297142Y-68032380D02*
X155201904Y-68032380D01*
X155106666Y-68080000D01*
X155059047Y-68127619D01*
X155011428Y-68222857D01*
X154963809Y-68413333D01*
X154963809Y-68651428D01*
X155011428Y-68841904D01*
X155059047Y-68937142D01*
X155106666Y-68984761D01*
X155201904Y-69032380D01*
X155297142Y-69032380D01*
X155392380Y-68984761D01*
X155440000Y-68937142D01*
X155487619Y-68841904D01*
X155535238Y-68651428D01*
X155535238Y-68413333D01*
X155487619Y-68222857D01*
X155440000Y-68127619D01*
X155392380Y-68080000D01*
X155297142Y-68032380D01*
X154535238Y-69032380D02*
X154535238Y-68032380D01*
X154201904Y-68746666D01*
X153868571Y-68032380D01*
X153868571Y-69032380D01*
X152820952Y-68937142D02*
X152868571Y-68984761D01*
X153011428Y-69032380D01*
X153106666Y-69032380D01*
X153249523Y-68984761D01*
X153344761Y-68889523D01*
X153392380Y-68794285D01*
X153440000Y-68603809D01*
X153440000Y-68460952D01*
X153392380Y-68270476D01*
X153344761Y-68175238D01*
X153249523Y-68080000D01*
X153106666Y-68032380D01*
X153011428Y-68032380D01*
X152868571Y-68080000D01*
X152820952Y-68127619D01*
X152392380Y-68651428D02*
X151630476Y-68651428D01*
X151201904Y-68746666D02*
X150725714Y-68746666D01*
X151297142Y-69032380D02*
X150963809Y-68032380D01*
X150630476Y-69032380D01*
X150297142Y-69032380D02*
X150297142Y-68032380D01*
X150297142Y-68508571D02*
X149725714Y-68508571D01*
X149725714Y-69032380D02*
X149725714Y-68032380D01*
X152034500Y-71631780D02*
X152034500Y-71869876D01*
X152272595Y-71774638D02*
X152034500Y-71869876D01*
X151796404Y-71774638D01*
X152177357Y-72060352D02*
X152034500Y-71869876D01*
X151891642Y-72060352D01*
X152034500Y-71631780D02*
X152034500Y-71869876D01*
X152272595Y-71774638D02*
X152034500Y-71869876D01*
X151796404Y-71774638D01*
X152177357Y-72060352D02*
X152034500Y-71869876D01*
X151891642Y-72060352D01*
%TO.C,U5*%
X101091904Y-66000380D02*
X101091904Y-66809904D01*
X101044285Y-66905142D01*
X100996666Y-66952761D01*
X100901428Y-67000380D01*
X100710952Y-67000380D01*
X100615714Y-66952761D01*
X100568095Y-66905142D01*
X100520476Y-66809904D01*
X100520476Y-66000380D01*
X99568095Y-66000380D02*
X100044285Y-66000380D01*
X100091904Y-66476571D01*
X100044285Y-66428952D01*
X99949047Y-66381333D01*
X99710952Y-66381333D01*
X99615714Y-66428952D01*
X99568095Y-66476571D01*
X99520476Y-66571809D01*
X99520476Y-66809904D01*
X99568095Y-66905142D01*
X99615714Y-66952761D01*
X99710952Y-67000380D01*
X99949047Y-67000380D01*
X100044285Y-66952761D01*
X100091904Y-66905142D01*
X105068095Y-67000380D02*
X105544285Y-67000380D01*
X105544285Y-66000380D01*
X104401428Y-66476571D02*
X104258571Y-66524190D01*
X104210952Y-66571809D01*
X104163333Y-66667047D01*
X104163333Y-66809904D01*
X104210952Y-66905142D01*
X104258571Y-66952761D01*
X104353809Y-67000380D01*
X104734761Y-67000380D01*
X104734761Y-66000380D01*
X104401428Y-66000380D01*
X104306190Y-66048000D01*
X104258571Y-66095619D01*
X104210952Y-66190857D01*
X104210952Y-66286095D01*
X104258571Y-66381333D01*
X104306190Y-66428952D01*
X104401428Y-66476571D01*
X104734761Y-66476571D01*
X103210952Y-67000380D02*
X103782380Y-67000380D01*
X103496666Y-67000380D02*
X103496666Y-66000380D01*
X103591904Y-66143238D01*
X103687142Y-66238476D01*
X103782380Y-66286095D01*
X102734761Y-67000380D02*
X102544285Y-67000380D01*
X102449047Y-66952761D01*
X102401428Y-66905142D01*
X102306190Y-66762285D01*
X102258571Y-66571809D01*
X102258571Y-66190857D01*
X102306190Y-66095619D01*
X102353809Y-66048000D01*
X102449047Y-66000380D01*
X102639523Y-66000380D01*
X102734761Y-66048000D01*
X102782380Y-66095619D01*
X102830000Y-66190857D01*
X102830000Y-66428952D01*
X102782380Y-66524190D01*
X102734761Y-66571809D01*
X102639523Y-66619428D01*
X102449047Y-66619428D01*
X102353809Y-66571809D01*
X102306190Y-66524190D01*
X102258571Y-66428952D01*
X101925238Y-66000380D02*
X101306190Y-66000380D01*
X101639523Y-66381333D01*
X101496666Y-66381333D01*
X101401428Y-66428952D01*
X101353809Y-66476571D01*
X101306190Y-66571809D01*
X101306190Y-66809904D01*
X101353809Y-66905142D01*
X101401428Y-66952761D01*
X101496666Y-67000380D01*
X101782380Y-67000380D01*
X101877619Y-66952761D01*
X101925238Y-66905142D01*
X100687142Y-66000380D02*
X100591904Y-66000380D01*
X100496666Y-66048000D01*
X100449047Y-66095619D01*
X100401428Y-66190857D01*
X100353809Y-66381333D01*
X100353809Y-66619428D01*
X100401428Y-66809904D01*
X100449047Y-66905142D01*
X100496666Y-66952761D01*
X100591904Y-67000380D01*
X100687142Y-67000380D01*
X100782380Y-66952761D01*
X100830000Y-66905142D01*
X100877619Y-66809904D01*
X100925238Y-66619428D01*
X100925238Y-66381333D01*
X100877619Y-66190857D01*
X100830000Y-66095619D01*
X100782380Y-66048000D01*
X100687142Y-66000380D01*
X99925238Y-67000380D02*
X99925238Y-66000380D01*
X99591904Y-66714666D01*
X99258571Y-66000380D01*
X99258571Y-67000380D01*
X98210952Y-66905142D02*
X98258571Y-66952761D01*
X98401428Y-67000380D01*
X98496666Y-67000380D01*
X98639523Y-66952761D01*
X98734761Y-66857523D01*
X98782380Y-66762285D01*
X98830000Y-66571809D01*
X98830000Y-66428952D01*
X98782380Y-66238476D01*
X98734761Y-66143238D01*
X98639523Y-66048000D01*
X98496666Y-66000380D01*
X98401428Y-66000380D01*
X98258571Y-66048000D01*
X98210952Y-66095619D01*
X97782380Y-66619428D02*
X97020476Y-66619428D01*
X96591904Y-66714666D02*
X96115714Y-66714666D01*
X96687142Y-67000380D02*
X96353809Y-66000380D01*
X96020476Y-67000380D01*
X95687142Y-67000380D02*
X95687142Y-66000380D01*
X95687142Y-66476571D02*
X95115714Y-66476571D01*
X95115714Y-67000380D02*
X95115714Y-66000380D01*
X103235500Y-62400980D02*
X103235500Y-62639076D01*
X103473595Y-62543838D02*
X103235500Y-62639076D01*
X102997404Y-62543838D01*
X103378357Y-62829552D02*
X103235500Y-62639076D01*
X103092642Y-62829552D01*
X103235500Y-62400980D02*
X103235500Y-62639076D01*
X103473595Y-62543838D02*
X103235500Y-62639076D01*
X102997404Y-62543838D01*
X103378357Y-62829552D02*
X103235500Y-62639076D01*
X103092642Y-62829552D01*
%TD*%
M02*
