%TF.GenerationSoftware,KiCad,Pcbnew,(5.1.6-0-10_14)*%
%TF.CreationDate,2020-10-29T22:09:48+01:00*%
%TF.ProjectId,bolidjs,626f6c69-646a-4732-9e6b-696361645f70,1.0*%
%TF.SameCoordinates,Original*%
%TF.FileFunction,Profile,NP*%
%FSLAX46Y46*%
G04 Gerber Fmt 4.6, Leading zero omitted, Abs format (unit mm)*
G04 Created by KiCad (PCBNEW (5.1.6-0-10_14)) date 2020-10-29 22:09:48*
%MOMM*%
%LPD*%
G01*
G04 APERTURE LIST*
%TA.AperFunction,Profile*%
%ADD10C,0.050000*%
%TD*%
G04 APERTURE END LIST*
D10*
X93345000Y-64643000D02*
X92710000Y-65278000D01*
X92583000Y-63881000D02*
X92456000Y-64008000D01*
X93345000Y-64643000D02*
X92583000Y-63881000D01*
X93472000Y-63246000D02*
X94107000Y-63881000D01*
X91440000Y-61214000D02*
X91440000Y-53086000D01*
X92456000Y-61214000D02*
X91440000Y-61214000D01*
X92456000Y-53086000D02*
X92456000Y-61214000D01*
X91440000Y-53086000D02*
X92456000Y-53086000D01*
X94234000Y-62230000D02*
X85344000Y-62230000D01*
X92202000Y-64262000D02*
X92456000Y-64008000D01*
X85344000Y-63246000D02*
X93472000Y-63246000D01*
X85344000Y-62230000D02*
X85344000Y-63246000D01*
X171958000Y-53086000D02*
X171958000Y-58674000D01*
X172974000Y-53086000D02*
X171958000Y-53086000D01*
X172974000Y-58674000D02*
X172974000Y-53086000D01*
X171958000Y-58674000D02*
X172974000Y-58674000D01*
X168910000Y-103632000D02*
X168910000Y-95758000D01*
X170434000Y-103632000D02*
X168910000Y-103632000D01*
X170434000Y-95758000D02*
X170434000Y-103632000D01*
X168910000Y-95758000D02*
X170434000Y-95758000D01*
X119634000Y-103632000D02*
X119634000Y-101346000D01*
X118618000Y-103632000D02*
X119634000Y-103632000D01*
X77724000Y-99060000D02*
X78740000Y-99060000D01*
X83312000Y-89916000D02*
X83312000Y-94488000D01*
X117348000Y-100330000D02*
X107188000Y-100330000D01*
X154940000Y-100330000D02*
X160020000Y-100330000D01*
X160782000Y-97790000D02*
X160782000Y-99568000D01*
X168910000Y-91694000D02*
X160782000Y-91694000D01*
X160782000Y-60706000D02*
X168910000Y-60706000D01*
X160782000Y-56896000D02*
X160782000Y-60706000D01*
X160782000Y-52832000D02*
X161798000Y-52832000D01*
X99060000Y-58928000D02*
X105156000Y-52832000D01*
X89916000Y-69088000D02*
X89916000Y-70612000D01*
X103632000Y-52832000D02*
X105156000Y-52832000D01*
X98298000Y-58166000D02*
X103632000Y-52832000D01*
X99060000Y-58928000D02*
X98298000Y-58166000D01*
X97536000Y-58928000D02*
X98298000Y-59690000D01*
X94234000Y-62230000D02*
X97536000Y-58928000D01*
X90424000Y-64262000D02*
X92202000Y-64262000D01*
X88900000Y-65786000D02*
X90424000Y-64262000D01*
X88900000Y-68072000D02*
X88900000Y-65786000D01*
X89916000Y-68072000D02*
X88900000Y-68072000D01*
X88900000Y-69088000D02*
X89916000Y-69088000D01*
X88900000Y-69850000D02*
X88900000Y-69088000D01*
X88646000Y-70104000D02*
X88900000Y-69850000D01*
X84582000Y-70104000D02*
X88646000Y-70104000D01*
X84328000Y-69850000D02*
X84582000Y-70104000D01*
X84328000Y-69088000D02*
X84328000Y-69850000D01*
X83312000Y-69088000D02*
X84328000Y-69088000D01*
X84328000Y-68072000D02*
X83312000Y-68072000D01*
X84328000Y-58928000D02*
X84328000Y-68072000D01*
X83312000Y-58928000D02*
X84328000Y-58928000D01*
X84328000Y-57912000D02*
X83312000Y-57912000D01*
X84328000Y-57404000D02*
X84328000Y-57912000D01*
X84328000Y-52832000D02*
X84328000Y-57404000D01*
X78740000Y-52832000D02*
X84328000Y-52832000D01*
X78740000Y-53340000D02*
X78740000Y-52832000D01*
X77724000Y-100838000D02*
X77724000Y-99060000D01*
X86106000Y-89916000D02*
X83312000Y-89916000D01*
X84836000Y-88900000D02*
X83312000Y-88900000D01*
X91186000Y-88900000D02*
X91948000Y-87376000D01*
X90170000Y-88900000D02*
X90932000Y-87376000D01*
X106172000Y-101346000D02*
X106172000Y-100330000D01*
X102870000Y-101346000D02*
X106172000Y-101346000D01*
X102870000Y-103632000D02*
X102870000Y-101346000D01*
X100330000Y-103632000D02*
X102870000Y-103632000D01*
X107188000Y-101346000D02*
X107188000Y-100330000D01*
X117348000Y-101346000D02*
X107188000Y-101346000D01*
X117348000Y-100330000D02*
X117348000Y-101346000D01*
X118618000Y-103632000D02*
X118618000Y-100330000D01*
X153924000Y-101346000D02*
X119634000Y-101346000D01*
X153924000Y-100330000D02*
X153924000Y-101346000D01*
X154940000Y-101346000D02*
X154940000Y-100330000D01*
X160528000Y-101346000D02*
X154940000Y-101346000D01*
X160528000Y-103886000D02*
X160528000Y-101346000D01*
X161798000Y-103886000D02*
X160528000Y-103886000D01*
X161798000Y-97790000D02*
X161798000Y-103886000D01*
X160782000Y-97790000D02*
X161798000Y-97790000D01*
X161798000Y-96774000D02*
X160782000Y-96774000D01*
X161798000Y-94488000D02*
X161798000Y-96774000D01*
X168910000Y-94488000D02*
X161798000Y-94488000D01*
X168910000Y-91694000D02*
X168910000Y-94488000D01*
X170434000Y-94488000D02*
X170434000Y-91694000D01*
X177038000Y-94488000D02*
X170434000Y-94488000D01*
X177038000Y-91694000D02*
X177038000Y-94488000D01*
X177038000Y-59690000D02*
X177038000Y-60706000D01*
X169926000Y-59690000D02*
X177038000Y-59690000D01*
X169926000Y-60706000D02*
X169926000Y-59690000D01*
X168910000Y-59690000D02*
X168910000Y-60706000D01*
X161798000Y-59690000D02*
X168910000Y-59690000D01*
X161798000Y-56896000D02*
X161798000Y-59690000D01*
X160782000Y-56896000D02*
X161798000Y-56896000D01*
X161798000Y-55880000D02*
X161798000Y-52832000D01*
X160782000Y-55880000D02*
X161798000Y-55880000D01*
X76962000Y-52070000D02*
X76962000Y-54356000D01*
X105918000Y-52070000D02*
X76962000Y-52070000D01*
X177800000Y-52070000D02*
X160020000Y-52070000D01*
X177800000Y-60706000D02*
X177800000Y-52070000D01*
X177800000Y-104648000D02*
X177800000Y-91694000D01*
X177546000Y-104648000D02*
X177800000Y-104648000D01*
X101854000Y-104648000D02*
X177546000Y-104648000D01*
X76962000Y-98044000D02*
X76962000Y-104648000D01*
X83820000Y-71120000D02*
X84074000Y-71120000D01*
X83312000Y-70612000D02*
X83820000Y-71120000D01*
X83820000Y-81280000D02*
X89408000Y-81280000D01*
X83312000Y-81788000D02*
X83820000Y-81280000D01*
X83312000Y-88900000D02*
X83312000Y-81788000D01*
X82296000Y-95504000D02*
X83312000Y-94488000D01*
X89916000Y-82296000D02*
X89916000Y-81788000D01*
X98298000Y-59690000D02*
X94107000Y-63881000D01*
X105918000Y-52070000D02*
X106680000Y-52070000D01*
X90678000Y-65278000D02*
X92710000Y-65278000D01*
X89916000Y-66040000D02*
X90678000Y-65278000D01*
X89916000Y-68072000D02*
X89916000Y-66040000D01*
X89408000Y-71120000D02*
X89916000Y-70612000D01*
X84074000Y-71120000D02*
X89408000Y-71120000D01*
X83312000Y-69088000D02*
X83312000Y-70612000D01*
X83312000Y-58928000D02*
X83312000Y-68072000D01*
X82296000Y-56896000D02*
X83312000Y-57912000D01*
X78740000Y-53340000D02*
X82296000Y-56896000D01*
X76962000Y-59436000D02*
X76962000Y-54356000D01*
X76962000Y-71374000D02*
X76962000Y-59436000D01*
X76962000Y-81280000D02*
X76962000Y-71374000D01*
X76962000Y-98044000D02*
X76962000Y-81280000D01*
X82296000Y-95504000D02*
X78740000Y-99060000D01*
X89916000Y-81788000D02*
X89408000Y-81280000D01*
X89916000Y-82550000D02*
X89916000Y-82296000D01*
X89916000Y-82804000D02*
X89916000Y-82550000D01*
X89916000Y-86360000D02*
X89916000Y-82804000D01*
X90932000Y-87376000D02*
X89916000Y-86360000D01*
X92964000Y-87376000D02*
X91948000Y-87376000D01*
X105918000Y-100330000D02*
X92964000Y-87376000D01*
X106172000Y-100330000D02*
X105918000Y-100330000D01*
X153924000Y-100330000D02*
X118618000Y-100330000D01*
X160782000Y-99568000D02*
X160020000Y-100330000D01*
X160782000Y-91694000D02*
X160782000Y-96774000D01*
X177038000Y-91694000D02*
X170434000Y-91694000D01*
X177800000Y-60706000D02*
X177800000Y-91694000D01*
X169926000Y-60706000D02*
X177038000Y-60706000D01*
X160782000Y-52832000D02*
X160782000Y-55880000D01*
X106680000Y-52070000D02*
X160020000Y-52070000D01*
X111760000Y-97790000D02*
X111760000Y-92710000D01*
X156210000Y-97790000D02*
X111760000Y-97790000D01*
X156210000Y-92710000D02*
X156210000Y-97790000D01*
X111760000Y-92710000D02*
X156210000Y-92710000D01*
X172720000Y-73660000D02*
X128270000Y-73660000D01*
X172720000Y-78740000D02*
X172720000Y-73660000D01*
X128270000Y-78740000D02*
X172720000Y-78740000D01*
X128270000Y-73660000D02*
X128270000Y-78740000D01*
X154940000Y-54610000D02*
X110490000Y-54610000D01*
X154940000Y-59690000D02*
X154940000Y-54610000D01*
X110490000Y-59690000D02*
X154940000Y-59690000D01*
X110490000Y-54610000D02*
X110490000Y-59690000D01*
X84836000Y-88900000D02*
X85344000Y-88900000D01*
X85090000Y-100838000D02*
X86106000Y-99822000D01*
X77724000Y-100838000D02*
X85090000Y-100838000D01*
X101854000Y-104648000D02*
X76962000Y-104648000D01*
X100330000Y-100838000D02*
X100330000Y-103632000D01*
X92202000Y-100838000D02*
X100330000Y-100838000D01*
X91186000Y-99822000D02*
X92202000Y-100838000D01*
X91186000Y-88900000D02*
X91186000Y-99822000D01*
X89408000Y-88900000D02*
X90170000Y-88900000D01*
X89408000Y-95250000D02*
X89408000Y-88900000D01*
X87884000Y-95250000D02*
X89408000Y-95250000D01*
X87884000Y-88900000D02*
X87884000Y-95250000D01*
X85344000Y-88900000D02*
X87884000Y-88900000D01*
X86106000Y-99822000D02*
X86106000Y-89916000D01*
M02*
