G04 #@! TF.GenerationSoftware,KiCad,Pcbnew,(5.1.6-0-10_14)*
G04 #@! TF.CreationDate,2020-11-02T13:07:56+01:00*
G04 #@! TF.ProjectId,bolidjs,626f6c69-646a-4732-9e6b-696361645f70,1.0*
G04 #@! TF.SameCoordinates,Original*
G04 #@! TF.FileFunction,Copper,L1,Top*
G04 #@! TF.FilePolarity,Positive*
%FSLAX46Y46*%
G04 Gerber Fmt 4.6, Leading zero omitted, Abs format (unit mm)*
G04 Created by KiCad (PCBNEW (5.1.6-0-10_14)) date 2020-11-02 13:07:56*
%MOMM*%
%LPD*%
G01*
G04 APERTURE LIST*
G04 #@! TA.AperFunction,ComponentPad*
%ADD10R,1.700000X1.700000*%
G04 #@! TD*
G04 #@! TA.AperFunction,ComponentPad*
%ADD11O,5.100000X1.000000*%
G04 #@! TD*
G04 #@! TA.AperFunction,ComponentPad*
%ADD12C,0.822960*%
G04 #@! TD*
G04 #@! TA.AperFunction,ComponentPad*
%ADD13C,0.914400*%
G04 #@! TD*
G04 #@! TA.AperFunction,ComponentPad*
%ADD14C,1.524000*%
G04 #@! TD*
G04 #@! TA.AperFunction,ComponentPad*
%ADD15R,1.600000X1.600000*%
G04 #@! TD*
G04 #@! TA.AperFunction,ComponentPad*
%ADD16C,1.600000*%
G04 #@! TD*
G04 #@! TA.AperFunction,ComponentPad*
%ADD17R,1.800000X1.800000*%
G04 #@! TD*
G04 #@! TA.AperFunction,ComponentPad*
%ADD18C,1.800000*%
G04 #@! TD*
G04 #@! TA.AperFunction,ComponentPad*
%ADD19O,1.700000X1.700000*%
G04 #@! TD*
G04 #@! TA.AperFunction,ComponentPad*
%ADD20R,1.700000X4.440000*%
G04 #@! TD*
G04 #@! TA.AperFunction,ComponentPad*
%ADD21O,1.524000X4.572000*%
G04 #@! TD*
G04 #@! TA.AperFunction,ComponentPad*
%ADD22R,2.400000X2.400000*%
G04 #@! TD*
G04 #@! TA.AperFunction,ComponentPad*
%ADD23O,2.400000X2.400000*%
G04 #@! TD*
G04 #@! TA.AperFunction,ComponentPad*
%ADD24R,2.800000X2.800000*%
G04 #@! TD*
G04 #@! TA.AperFunction,ComponentPad*
%ADD25O,2.800000X2.800000*%
G04 #@! TD*
G04 #@! TA.AperFunction,ViaPad*
%ADD26C,0.800000*%
G04 #@! TD*
G04 #@! TA.AperFunction,Conductor*
%ADD27C,0.609600*%
G04 #@! TD*
G04 #@! TA.AperFunction,Conductor*
%ADD28C,0.508000*%
G04 #@! TD*
G04 #@! TA.AperFunction,Conductor*
%ADD29C,0.812800*%
G04 #@! TD*
G04 APERTURE END LIST*
D10*
X172466000Y-68326000D03*
X165100000Y-68326000D03*
X172466000Y-84074000D03*
X165100000Y-84074000D03*
X171450000Y-95758000D03*
X117475000Y-102235000D03*
X104140000Y-102235000D03*
X162560000Y-95758000D03*
X163195000Y-53594000D03*
X163195000Y-57785000D03*
X170561000Y-53594000D03*
X170561000Y-57785000D03*
X89916000Y-60833000D03*
X85725000Y-60833000D03*
X89916000Y-53467000D03*
X85725000Y-53467000D03*
X176657000Y-95758000D03*
X164592000Y-95758000D03*
X167843200Y-95758000D03*
X172466000Y-103124000D03*
X176657000Y-103124000D03*
X173482000Y-95758000D03*
X167845000Y-103378000D03*
X163576000Y-103378000D03*
D11*
X103886000Y-84836000D03*
X93081600Y-84836000D03*
D12*
X100196000Y-87172800D03*
X98866000Y-86360000D03*
X97536000Y-87172800D03*
X96206000Y-86360000D03*
D13*
X119380000Y-85725000D03*
X120650000Y-85725000D03*
D14*
X123190000Y-63500000D03*
X123190000Y-66040000D03*
X123190000Y-68580000D03*
X123190000Y-71120000D03*
X123190000Y-73660000D03*
X123190000Y-76200000D03*
X123190000Y-78740000D03*
X123190000Y-81280000D03*
X123190000Y-83820000D03*
X123190000Y-86360000D03*
X123190000Y-88900000D03*
X120650000Y-88900000D03*
X118110000Y-88900000D03*
X115570000Y-88900000D03*
X113030000Y-88900000D03*
X110490000Y-88900000D03*
X107950000Y-88900000D03*
X107950000Y-86360000D03*
X107950000Y-83820000D03*
X107950000Y-81280000D03*
X107950000Y-78740000D03*
X107950000Y-76200000D03*
X107950000Y-73660000D03*
X107950000Y-71120000D03*
X107950000Y-68580000D03*
X107950000Y-66040000D03*
X107950000Y-63500000D03*
D15*
X104902000Y-94742000D03*
D16*
X104902000Y-97242000D03*
X160822000Y-63500000D03*
D15*
X163322000Y-63500000D03*
X102108000Y-60452000D03*
D16*
X99608000Y-60452000D03*
X104394000Y-72938000D03*
D15*
X104394000Y-75438000D03*
D16*
X127000000Y-88860000D03*
D15*
X127000000Y-86360000D03*
D17*
X173355000Y-65405000D03*
D18*
X173355000Y-62865000D03*
X173990000Y-86995000D03*
D17*
X173990000Y-89535000D03*
X79502000Y-58674000D03*
D18*
X79502000Y-61214000D03*
X79248000Y-93726000D03*
D17*
X79248000Y-91186000D03*
D19*
X126238000Y-66040000D03*
D10*
X126238000Y-63500000D03*
X99060000Y-103378000D03*
X78232000Y-103378000D03*
X88646000Y-103378000D03*
D20*
X86106000Y-97790000D03*
D10*
X85090000Y-103378000D03*
X92202000Y-103378000D03*
D20*
X91186000Y-97790000D03*
D10*
X79502000Y-87630000D03*
X79502000Y-64770000D03*
X79248000Y-76200000D03*
D19*
X131826000Y-83312000D03*
D10*
X131826000Y-85852000D03*
X149606000Y-86360000D03*
X91440000Y-68834000D03*
X149606000Y-83058000D03*
X91440000Y-82804000D03*
X78994000Y-96266000D03*
X79248000Y-56134000D03*
X126492000Y-83312000D03*
D19*
X129032000Y-83312000D03*
D10*
X105664000Y-55118000D03*
D19*
X105664000Y-57658000D03*
X105664000Y-60198000D03*
D21*
X158750000Y-57150000D03*
X108585000Y-57150000D03*
X126365000Y-76200000D03*
X176530000Y-76200000D03*
X107950000Y-95250000D03*
X158115000Y-95250000D03*
D22*
X142240000Y-62484000D03*
D23*
X142240000Y-88484000D03*
D24*
X129794000Y-67310000D03*
D25*
X139954000Y-67310000D03*
D24*
X139192000Y-63500000D03*
D25*
X129032000Y-63500000D03*
D26*
X153670000Y-62865000D03*
X105664000Y-86868000D03*
X154940000Y-70485000D03*
X102870000Y-88988607D03*
X102616000Y-81788000D03*
X118618000Y-83058000D03*
X97536000Y-78994000D03*
X100330000Y-69596000D03*
X167132000Y-63500000D03*
X104140000Y-63246000D03*
X81280000Y-70358000D03*
X95758000Y-77470000D03*
X102870000Y-70358000D03*
X150114000Y-68834000D03*
X150876000Y-67564000D03*
D27*
X122428001Y-87121999D02*
X123190000Y-86360000D01*
X119888001Y-87121999D02*
X122428001Y-87121999D01*
X118110000Y-88900000D02*
X119888001Y-87121999D01*
X118110000Y-88900000D02*
X118110000Y-90170000D01*
X118110000Y-90170000D02*
X117348000Y-90932000D01*
X117348000Y-90932000D02*
X108107134Y-90932000D01*
X108107134Y-90932000D02*
X106680000Y-90932000D01*
X104902000Y-92710000D02*
X106680000Y-90932000D01*
X104902000Y-94742000D02*
X104902000Y-92710000D01*
X104394000Y-75438000D02*
X104648000Y-75438000D01*
X104648000Y-75438000D02*
X106172000Y-73914000D01*
X106172000Y-73914000D02*
X106172000Y-71628000D01*
X106172000Y-71628000D02*
X105410000Y-70866000D01*
X162814000Y-61976000D02*
X154559000Y-61976000D01*
X163322000Y-62484000D02*
X162814000Y-61976000D01*
X154559000Y-61976000D02*
X153670000Y-62865000D01*
X163322000Y-63500000D02*
X163322000Y-62484000D01*
X105918000Y-60452000D02*
X105664000Y-60198000D01*
X151257000Y-60452000D02*
X105918000Y-60452000D01*
X153670000Y-62865000D02*
X151257000Y-60452000D01*
X105410000Y-60452000D02*
X105664000Y-60198000D01*
X105410000Y-70866000D02*
X105410000Y-60452000D01*
D28*
X105664000Y-89916000D02*
X106680000Y-90932000D01*
X105664000Y-86868000D02*
X105664000Y-89916000D01*
X98894607Y-82384607D02*
X93472000Y-76962000D01*
D27*
X129032000Y-83312000D02*
X131826000Y-83312000D01*
D29*
X126238000Y-63500000D02*
X126238000Y-63246000D01*
X126238000Y-63246000D02*
X124714000Y-61722000D01*
X124714000Y-61722000D02*
X121412000Y-61722000D01*
X121412000Y-61722000D02*
X118618000Y-64516000D01*
X118618000Y-64516000D02*
X118618000Y-83058000D01*
D27*
X127000000Y-88860000D02*
X135168000Y-88860000D01*
X142240000Y-88484000D02*
X139538000Y-88484000D01*
X139538000Y-88484000D02*
X137541000Y-86487000D01*
X135168000Y-88860000D02*
X137541000Y-86487000D01*
X134366000Y-83312000D02*
X137541000Y-86487000D01*
X131826000Y-83312000D02*
X134366000Y-83312000D01*
X144272000Y-79756000D02*
X137541000Y-86487000D01*
X172974000Y-79756000D02*
X144272000Y-79756000D01*
X173990000Y-78740000D02*
X172974000Y-79756000D01*
X172720000Y-72390000D02*
X173990000Y-73660000D01*
X173990000Y-73660000D02*
X173990000Y-78740000D01*
X156845000Y-72390000D02*
X172720000Y-72390000D01*
X154940000Y-70485000D02*
X156845000Y-72390000D01*
D28*
X102870000Y-88138000D02*
X98894607Y-84162607D01*
X98894607Y-84162607D02*
X98894607Y-82384607D01*
X102870000Y-88988607D02*
X102870000Y-88138000D01*
X99491214Y-81788000D02*
X98894607Y-82384607D01*
X102616000Y-81788000D02*
X99491214Y-81788000D01*
X79248000Y-91186000D02*
X79756000Y-91186000D01*
X79756000Y-91186000D02*
X81534000Y-89408000D01*
X81534000Y-89408000D02*
X81534000Y-78740000D01*
X83312000Y-76962000D02*
X93472000Y-76962000D01*
X81534000Y-78740000D02*
X83312000Y-76962000D01*
X79502000Y-58674000D02*
X79248000Y-58674000D01*
X79248000Y-58674000D02*
X77724000Y-60198000D01*
X77724000Y-71374000D02*
X83312000Y-76962000D01*
X77724000Y-60198000D02*
X77724000Y-71374000D01*
X88646000Y-103378000D02*
X88646000Y-101600000D01*
X79248000Y-101600000D02*
X78232000Y-102616000D01*
X78232000Y-102616000D02*
X78232000Y-103378000D01*
X88646000Y-101600000D02*
X79248000Y-101600000D01*
X99060000Y-102362000D02*
X99060000Y-103378000D01*
X98298000Y-101600000D02*
X99060000Y-102362000D01*
X88646000Y-101600000D02*
X98298000Y-101600000D01*
X107950000Y-78740000D02*
X97790000Y-78740000D01*
X97790000Y-78740000D02*
X97536000Y-78994000D01*
X92202000Y-69596000D02*
X91440000Y-68834000D01*
X100330000Y-69596000D02*
X92202000Y-69596000D01*
D27*
X125984000Y-83820000D02*
X126492000Y-83312000D01*
X123190000Y-83820000D02*
X125984000Y-83820000D01*
D28*
X124460000Y-73660000D02*
X123190000Y-73660000D01*
X167132000Y-64008000D02*
X165354000Y-65786000D01*
X165354000Y-65786000D02*
X155956000Y-65786000D01*
X148844000Y-72898000D02*
X125222000Y-72898000D01*
X125222000Y-72898000D02*
X124460000Y-73660000D01*
X155956000Y-65786000D02*
X148844000Y-72898000D01*
X167132000Y-63500000D02*
X167132000Y-64008000D01*
X104140000Y-63246000D02*
X104140000Y-63754000D01*
X104140000Y-64008000D02*
X104140000Y-63246000D01*
X104140000Y-67310000D02*
X104140000Y-64008000D01*
X96012000Y-75438000D02*
X104140000Y-67310000D01*
X96012000Y-75438000D02*
X84582000Y-75438000D01*
X84582000Y-75438000D02*
X81280000Y-72136000D01*
X81280000Y-72136000D02*
X81280000Y-70358000D01*
X95758000Y-77470000D02*
X102870000Y-70358000D01*
X125603000Y-71628000D02*
X125095000Y-71120000D01*
X125095000Y-71120000D02*
X123190000Y-71120000D01*
X147320000Y-71628000D02*
X125603000Y-71628000D01*
X150114000Y-68834000D02*
X147320000Y-71628000D01*
X124968000Y-68580000D02*
X123190000Y-68580000D01*
X126492000Y-70104000D02*
X124968000Y-68580000D01*
X145796000Y-70104000D02*
X126492000Y-70104000D01*
X148336000Y-67564000D02*
X145796000Y-70104000D01*
X150876000Y-67564000D02*
X148336000Y-67564000D01*
D29*
X161290000Y-81280000D02*
X158115000Y-84455000D01*
X158115000Y-84455000D02*
X158115000Y-95250000D01*
X176530000Y-78740000D02*
X173990000Y-81280000D01*
X173990000Y-81280000D02*
X161290000Y-81280000D01*
X176530000Y-76200000D02*
X176530000Y-78740000D01*
X163576000Y-103378000D02*
X167845000Y-103378000D01*
X171450000Y-95758000D02*
X173482000Y-95758000D01*
X173482000Y-95758000D02*
X176657000Y-95758000D01*
X172466000Y-103124000D02*
X176657000Y-103124000D01*
X162560000Y-95758000D02*
X164592000Y-95758000D01*
X164592000Y-95758000D02*
X167843200Y-95758000D01*
X85725000Y-53467000D02*
X89916000Y-53467000D01*
X85725000Y-60833000D02*
X89916000Y-60833000D01*
X170561000Y-53594000D02*
X170561000Y-57785000D01*
X163195000Y-53594000D02*
X163195000Y-57785000D01*
M02*
