M48
; DRILL file {KiCad (5.1.6-0-10_14)} date Thursday, October 29, 2020 at 05:49:42 PM
; FORMAT={-:-/ absolute / inch / decimal}
; #@! TF.CreationDate,2020-10-29T17:49:42+01:00
; #@! TF.GenerationSoftware,Kicad,Pcbnew,(5.1.6-0-10_14)
; #@! TF.FileFunction,Plated,1,2,PTH
FMAT,2
INCH
T1C0.0157
T2C0.0162
T3C0.0225
T4C0.0300
T5C0.0315
T6C0.0354
T7C0.0394
T8C0.0472
T9C0.0551
%
G90
G05
T1
X3.2Y-2.77
X3.77Y-3.05
X3.84Y-3.11
X3.95Y-2.74
X4.04Y-3.22
X4.05Y-2.77
X4.05Y-3.5035
X4.1Y-2.49
X4.16Y-3.42
X4.67Y-3.27
X5.91Y-2.71
X5.94Y-2.66
X6.05Y-2.475
X6.1Y-2.775
X6.58Y-2.5
T2
X3.7876Y-3.4
X3.84Y-3.432
X3.8924Y-3.4
X3.9447Y-3.432
T3
X4.7Y-3.375
X4.75Y-3.375
T4
X4.25Y-2.5
X4.25Y-2.6
X4.25Y-2.7
X4.25Y-2.8
X4.25Y-2.9
X4.25Y-3.0
X4.25Y-3.1
X4.25Y-3.2
X4.25Y-3.3
X4.25Y-3.4
X4.25Y-3.5
X4.35Y-3.5
X4.45Y-3.5
X4.55Y-3.5
X4.65Y-3.5
X4.75Y-3.5
X4.85Y-2.5
X4.85Y-2.6
X4.85Y-2.7
X4.85Y-2.8
X4.85Y-2.9
X4.85Y-3.0
X4.85Y-3.1
X4.85Y-3.2
X4.85Y-3.3
X4.85Y-3.4
X4.85Y-3.5
T5
X6.3316Y-2.5
X6.43Y-2.5
X3.9216Y-2.38
X4.02Y-2.38
X4.13Y-3.73
X4.13Y-3.8284
X4.11Y-2.8716
X4.11Y-2.97
X5.0Y-3.4
X5.0Y-3.4984
T6
X6.85Y-3.425
X6.85Y-3.525
X3.12Y-3.59
X3.12Y-3.69
X6.825Y-2.475
X6.825Y-2.575
X3.13Y-2.31
X3.13Y-2.41
T7
X4.97Y-2.5
X4.97Y-2.6
X3.12Y-2.21
X6.425Y-2.275
X6.83Y-3.77
X3.08Y-4.07
X3.375Y-2.395
X6.79Y-3.31
X6.44Y-4.07
X3.13Y-2.55
X3.11Y-3.79
X3.375Y-2.105
X6.425Y-2.11
X3.63Y-4.07
X6.955Y-3.77
X3.68Y-3.26
X6.715Y-2.275
X6.608Y-3.77
X3.9Y-4.07
X6.4Y-3.77
X3.35Y-4.07
X6.79Y-2.69
X6.955Y-4.06
X3.54Y-2.395
X5.19Y-3.28
X5.19Y-3.38
X4.1Y-4.025
X4.625Y-4.025
X6.6081Y-4.07
X3.13Y-3.45
X3.54Y-2.105
X5.89Y-3.27
X6.5Y-3.31
X6.5Y-2.69
X3.12Y-3.0
X6.75Y-3.77
X3.68Y-2.71
X6.48Y-3.77
X4.98Y-3.28
X5.08Y-3.28
X3.49Y-4.07
X6.715Y-2.11
X6.79Y-4.06
X5.89Y-3.4
X4.16Y-2.17
X4.16Y-2.27
X4.16Y-2.37
T8
X5.6Y-2.46
X5.6Y-3.4836
T9
X5.11Y-2.65
X5.51Y-2.65
X5.08Y-2.5
X5.48Y-2.5
T4
G00X4.25Y-3.705
M15
G01X4.25Y-3.795
M16
G05
G00X6.225Y-3.705
M15
G01X6.225Y-3.795
M16
G05
G00X4.975Y-3.045
M15
G01X4.975Y-2.955
M16
G05
G00X6.95Y-3.045
M15
G01X6.95Y-2.955
M16
G05
G00X4.275Y-2.295
M15
G01X4.275Y-2.205
M16
G05
G00X6.25Y-2.295
M15
G01X6.25Y-2.205
M16
G05
T7
G00X3.5839Y-3.34
M15
G01X3.7453Y-3.34
M16
G05
G00X4.0093Y-3.34
M15
G01X4.1707Y-3.34
M16
G05
G00X3.39Y-3.6913
M15
G01X3.39Y-3.8487
M16
G05
G00X3.59Y-3.6913
M15
G01X3.59Y-3.8487
M16
G05
T0
M30
