%TF.GenerationSoftware,KiCad,Pcbnew,(5.1.6-0-10_14)*%
%TF.CreationDate,2020-10-29T22:09:48+01:00*%
%TF.ProjectId,bolidjs,626f6c69-646a-4732-9e6b-696361645f70,1.0*%
%TF.SameCoordinates,Original*%
%TF.FileFunction,Soldermask,Bot*%
%TF.FilePolarity,Negative*%
%FSLAX46Y46*%
G04 Gerber Fmt 4.6, Leading zero omitted, Abs format (unit mm)*
G04 Created by KiCad (PCBNEW (5.1.6-0-10_14)) date 2020-10-29 22:09:48*
%MOMM*%
%LPD*%
G01*
G04 APERTURE LIST*
%ADD10R,1.800000X1.800000*%
%ADD11O,5.200000X1.100000*%
%ADD12C,0.922960*%
%ADD13R,1.300000X1.300000*%
%ADD14C,1.014400*%
%ADD15C,1.624000*%
%ADD16R,1.700000X1.700000*%
%ADD17C,1.700000*%
%ADD18R,1.900000X1.900000*%
%ADD19C,1.900000*%
%ADD20O,1.800000X1.800000*%
%ADD21R,1.800000X4.540000*%
%ADD22R,1.491399X0.556400*%
%ADD23O,1.624000X4.672000*%
%ADD24R,2.500000X2.500000*%
%ADD25O,2.500000X2.500000*%
%ADD26R,2.900000X2.900000*%
%ADD27O,2.900000X2.900000*%
G04 APERTURE END LIST*
D10*
%TO.C,J14*%
X172466000Y-68326000D03*
%TD*%
%TO.C,J13*%
X165100000Y-68326000D03*
%TD*%
%TO.C,J12*%
X172466000Y-84074000D03*
%TD*%
%TO.C,J11*%
X165100000Y-84074000D03*
%TD*%
%TO.C,J58*%
X171450000Y-95758000D03*
%TD*%
%TO.C,J56*%
X117475000Y-102235000D03*
%TD*%
%TO.C,J55*%
X104140000Y-102235000D03*
%TD*%
%TO.C,J54*%
X162560000Y-95758000D03*
%TD*%
%TO.C,J53*%
X163195000Y-53594000D03*
%TD*%
%TO.C,J52*%
X163195000Y-57785000D03*
%TD*%
%TO.C,J50*%
X170561000Y-53594000D03*
%TD*%
%TO.C,J49*%
X170561000Y-57785000D03*
%TD*%
%TO.C,J47*%
X89916000Y-60833000D03*
%TD*%
%TO.C,J46*%
X85725000Y-60833000D03*
%TD*%
%TO.C,J45*%
X89916000Y-53467000D03*
%TD*%
%TO.C,J44*%
X85725000Y-53467000D03*
%TD*%
%TO.C,J42*%
X176657000Y-95758000D03*
%TD*%
%TO.C,J41*%
X164592000Y-95758000D03*
%TD*%
%TO.C,J40*%
X167843200Y-95758000D03*
%TD*%
%TO.C,J39*%
X172466000Y-103124000D03*
%TD*%
%TO.C,J38*%
X176657000Y-103124000D03*
%TD*%
%TO.C,J37*%
X173482000Y-95758000D03*
%TD*%
%TO.C,J33*%
X167845000Y-103378000D03*
%TD*%
%TO.C,J32*%
X163576000Y-103378000D03*
%TD*%
D11*
%TO.C,M1*%
X103886000Y-84836000D03*
X93081600Y-84836000D03*
D12*
X100196000Y-87172800D03*
X98866000Y-86360000D03*
X97536000Y-87172800D03*
X96206000Y-86360000D03*
%TD*%
D13*
%TO.C,R7*%
X136144000Y-63974000D03*
X136144000Y-66074000D03*
%TD*%
D14*
%TO.C,U1*%
X119380000Y-85725000D03*
X120650000Y-85725000D03*
D15*
X123190000Y-63500000D03*
X123190000Y-66040000D03*
X123190000Y-68580000D03*
X123190000Y-71120000D03*
X123190000Y-73660000D03*
X123190000Y-76200000D03*
X123190000Y-78740000D03*
X123190000Y-81280000D03*
X123190000Y-83820000D03*
X123190000Y-86360000D03*
X123190000Y-88900000D03*
X120650000Y-88900000D03*
X118110000Y-88900000D03*
X115570000Y-88900000D03*
X113030000Y-88900000D03*
X110490000Y-88900000D03*
X107950000Y-88900000D03*
X107950000Y-86360000D03*
X107950000Y-83820000D03*
X107950000Y-81280000D03*
X107950000Y-78740000D03*
X107950000Y-76200000D03*
X107950000Y-73660000D03*
X107950000Y-71120000D03*
X107950000Y-68580000D03*
X107950000Y-66040000D03*
X107950000Y-63500000D03*
%TD*%
D13*
%TO.C,C3*%
X101888000Y-62738000D03*
X99788000Y-62738000D03*
%TD*%
D16*
%TO.C,C4*%
X104902000Y-94742000D03*
D17*
X104902000Y-97242000D03*
%TD*%
%TO.C,C5*%
X160822000Y-63500000D03*
D16*
X163322000Y-63500000D03*
%TD*%
%TO.C,C6*%
X102108000Y-60452000D03*
D17*
X99608000Y-60452000D03*
%TD*%
%TO.C,C7*%
X104394000Y-72938000D03*
D16*
X104394000Y-75438000D03*
%TD*%
D17*
%TO.C,C8*%
X127000000Y-88860000D03*
D16*
X127000000Y-86360000D03*
%TD*%
D13*
%TO.C,C9*%
X155990000Y-64770000D03*
X153890000Y-64770000D03*
%TD*%
%TO.C,C10*%
X125095000Y-86580000D03*
X125095000Y-88680000D03*
%TD*%
%TO.C,C11*%
X102074000Y-87122000D03*
X104174000Y-87122000D03*
%TD*%
%TO.C,C12*%
X103666000Y-77724000D03*
X101566000Y-77724000D03*
%TD*%
%TO.C,C13*%
X116620000Y-77724000D03*
X114520000Y-77724000D03*
%TD*%
D18*
%TO.C,D1*%
X173355000Y-65405000D03*
D19*
X173355000Y-62865000D03*
%TD*%
%TO.C,D2*%
X173990000Y-86995000D03*
D18*
X173990000Y-89535000D03*
%TD*%
%TO.C,D3*%
X79502000Y-58674000D03*
D19*
X79502000Y-61214000D03*
%TD*%
%TO.C,D4*%
X79248000Y-93726000D03*
D18*
X79248000Y-91186000D03*
%TD*%
D20*
%TO.C,J1*%
X126238000Y-66040000D03*
D10*
X126238000Y-63500000D03*
%TD*%
%TO.C,J3*%
X99060000Y-103378000D03*
%TD*%
%TO.C,J4*%
X78232000Y-103378000D03*
%TD*%
%TO.C,J5*%
X88646000Y-103378000D03*
%TD*%
D21*
%TO.C,J6*%
X86106000Y-97790000D03*
%TD*%
D10*
%TO.C,J7*%
X85090000Y-103378000D03*
%TD*%
%TO.C,J8*%
X92202000Y-103378000D03*
%TD*%
D21*
%TO.C,J9*%
X91186000Y-97790000D03*
%TD*%
D10*
%TO.C,J17*%
X79502000Y-87630000D03*
%TD*%
%TO.C,J20*%
X79502000Y-64770000D03*
%TD*%
%TO.C,J23*%
X79248000Y-76200000D03*
%TD*%
D20*
%TO.C,J24*%
X131826000Y-83312000D03*
D10*
X131826000Y-85852000D03*
%TD*%
%TO.C,J25*%
X149606000Y-86360000D03*
%TD*%
%TO.C,J26*%
X91440000Y-68834000D03*
%TD*%
%TO.C,J27*%
X149606000Y-83058000D03*
%TD*%
%TO.C,J28*%
X91440000Y-82804000D03*
%TD*%
%TO.C,J34*%
X78994000Y-96266000D03*
%TD*%
%TO.C,J35*%
X79248000Y-56134000D03*
%TD*%
%TO.C,J36*%
X126492000Y-83312000D03*
D20*
X129032000Y-83312000D03*
%TD*%
D13*
%TO.C,R1*%
X170976000Y-62992000D03*
X168876000Y-62992000D03*
%TD*%
%TO.C,R2*%
X169130000Y-86995000D03*
X171230000Y-86995000D03*
%TD*%
%TO.C,R3*%
X82042000Y-60418000D03*
X82042000Y-62518000D03*
%TD*%
%TO.C,R4*%
X81788000Y-91406000D03*
X81788000Y-93506000D03*
%TD*%
%TO.C,R5*%
X114520000Y-75438000D03*
X116620000Y-75438000D03*
%TD*%
%TO.C,R6*%
X114520000Y-80010000D03*
X116620000Y-80010000D03*
%TD*%
D10*
%TO.C,S1*%
X105664000Y-55118000D03*
D20*
X105664000Y-57658000D03*
X105664000Y-60198000D03*
%TD*%
D22*
%TO.C,U2*%
X105013498Y-88677999D03*
X105013498Y-89677999D03*
X105013498Y-90678000D03*
X105013498Y-91678001D03*
X105013498Y-92678001D03*
X99710502Y-92678001D03*
X99710502Y-91678001D03*
X99710502Y-90678000D03*
X99710502Y-89677999D03*
X99710502Y-88677999D03*
%TD*%
%TO.C,U3*%
X99964502Y-79533999D03*
X99964502Y-80533999D03*
X99964502Y-81534000D03*
X99964502Y-82534001D03*
X99964502Y-83534001D03*
X105267498Y-83534001D03*
X105267498Y-82534001D03*
X105267498Y-81534000D03*
X105267498Y-80533999D03*
X105267498Y-79533999D03*
%TD*%
%TO.C,U4*%
X152288502Y-70580001D03*
X152288502Y-69580001D03*
X152288502Y-68580000D03*
X152288502Y-67579999D03*
X152288502Y-66579999D03*
X157591498Y-66579999D03*
X157591498Y-67579999D03*
X157591498Y-68580000D03*
X157591498Y-69580001D03*
X157591498Y-70580001D03*
%TD*%
%TO.C,U5*%
X97678502Y-64547999D03*
X97678502Y-65547999D03*
X97678502Y-66548000D03*
X97678502Y-67548001D03*
X97678502Y-68548001D03*
X102981498Y-68548001D03*
X102981498Y-67548001D03*
X102981498Y-66548000D03*
X102981498Y-65547999D03*
X102981498Y-64547999D03*
%TD*%
D23*
%TO.C,BT1*%
X158750000Y-57150000D03*
X108585000Y-57150000D03*
%TD*%
%TO.C,BT2*%
X126365000Y-76200000D03*
X176530000Y-76200000D03*
%TD*%
%TO.C,BT3*%
X107950000Y-95250000D03*
X158115000Y-95250000D03*
%TD*%
D24*
%TO.C,C1*%
X142240000Y-62484000D03*
D25*
X142240000Y-88484000D03*
%TD*%
D26*
%TO.C,D5*%
X129794000Y-67310000D03*
D27*
X139954000Y-67310000D03*
%TD*%
D26*
%TO.C,Z1*%
X139192000Y-63500000D03*
D27*
X129032000Y-63500000D03*
%TD*%
M02*
