G04 #@! TF.GenerationSoftware,KiCad,Pcbnew,(5.1.6-0-10_14)*
G04 #@! TF.CreationDate,2020-11-02T13:07:56+01:00*
G04 #@! TF.ProjectId,bolidjs,626f6c69-646a-4732-9e6b-696361645f70,1.0*
G04 #@! TF.SameCoordinates,Original*
G04 #@! TF.FileFunction,Paste,Bot*
G04 #@! TF.FilePolarity,Positive*
%FSLAX46Y46*%
G04 Gerber Fmt 4.6, Leading zero omitted, Abs format (unit mm)*
G04 Created by KiCad (PCBNEW (5.1.6-0-10_14)) date 2020-11-02 13:07:56*
%MOMM*%
%LPD*%
G01*
G04 APERTURE LIST*
%ADD10R,1.200000X1.200000*%
%ADD11R,1.391399X0.456400*%
G04 APERTURE END LIST*
D10*
X136144000Y-63974000D03*
X136144000Y-66074000D03*
X101888000Y-62738000D03*
X99788000Y-62738000D03*
X155990000Y-64770000D03*
X153890000Y-64770000D03*
X125095000Y-86580000D03*
X125095000Y-88680000D03*
X102074000Y-87122000D03*
X104174000Y-87122000D03*
X103666000Y-77724000D03*
X101566000Y-77724000D03*
X116620000Y-77724000D03*
X114520000Y-77724000D03*
X170976000Y-62992000D03*
X168876000Y-62992000D03*
X169130000Y-86995000D03*
X171230000Y-86995000D03*
X82042000Y-60418000D03*
X82042000Y-62518000D03*
X81788000Y-91406000D03*
X81788000Y-93506000D03*
X114520000Y-75438000D03*
X116620000Y-75438000D03*
X114520000Y-80010000D03*
X116620000Y-80010000D03*
D11*
X105013498Y-88677999D03*
X105013498Y-89677999D03*
X105013498Y-90678000D03*
X105013498Y-91678001D03*
X105013498Y-92678001D03*
X99710502Y-92678001D03*
X99710502Y-91678001D03*
X99710502Y-90678000D03*
X99710502Y-89677999D03*
X99710502Y-88677999D03*
X99964502Y-79533999D03*
X99964502Y-80533999D03*
X99964502Y-81534000D03*
X99964502Y-82534001D03*
X99964502Y-83534001D03*
X105267498Y-83534001D03*
X105267498Y-82534001D03*
X105267498Y-81534000D03*
X105267498Y-80533999D03*
X105267498Y-79533999D03*
X152288502Y-70580001D03*
X152288502Y-69580001D03*
X152288502Y-68580000D03*
X152288502Y-67579999D03*
X152288502Y-66579999D03*
X157591498Y-66579999D03*
X157591498Y-67579999D03*
X157591498Y-68580000D03*
X157591498Y-69580001D03*
X157591498Y-70580001D03*
X97678502Y-64547999D03*
X97678502Y-65547999D03*
X97678502Y-66548000D03*
X97678502Y-67548001D03*
X97678502Y-68548001D03*
X102981498Y-68548001D03*
X102981498Y-67548001D03*
X102981498Y-66548000D03*
X102981498Y-65547999D03*
X102981498Y-64547999D03*
M02*
