G04 #@! TF.GenerationSoftware,KiCad,Pcbnew,(5.1.6-0-10_14)*
G04 #@! TF.CreationDate,2020-11-02T13:07:56+01:00*
G04 #@! TF.ProjectId,bolidjs,626f6c69-646a-4732-9e6b-696361645f70,1.0*
G04 #@! TF.SameCoordinates,Original*
G04 #@! TF.FileFunction,Copper,L2,Bot*
G04 #@! TF.FilePolarity,Positive*
%FSLAX46Y46*%
G04 Gerber Fmt 4.6, Leading zero omitted, Abs format (unit mm)*
G04 Created by KiCad (PCBNEW (5.1.6-0-10_14)) date 2020-11-02 13:07:56*
%MOMM*%
%LPD*%
G01*
G04 APERTURE LIST*
G04 #@! TA.AperFunction,ComponentPad*
%ADD10R,1.700000X1.700000*%
G04 #@! TD*
G04 #@! TA.AperFunction,ComponentPad*
%ADD11O,5.100000X1.000000*%
G04 #@! TD*
G04 #@! TA.AperFunction,ComponentPad*
%ADD12C,0.822960*%
G04 #@! TD*
G04 #@! TA.AperFunction,SMDPad,CuDef*
%ADD13R,1.200000X1.200000*%
G04 #@! TD*
G04 #@! TA.AperFunction,ComponentPad*
%ADD14C,0.914400*%
G04 #@! TD*
G04 #@! TA.AperFunction,ComponentPad*
%ADD15C,1.524000*%
G04 #@! TD*
G04 #@! TA.AperFunction,ComponentPad*
%ADD16R,1.600000X1.600000*%
G04 #@! TD*
G04 #@! TA.AperFunction,ComponentPad*
%ADD17C,1.600000*%
G04 #@! TD*
G04 #@! TA.AperFunction,ComponentPad*
%ADD18R,1.800000X1.800000*%
G04 #@! TD*
G04 #@! TA.AperFunction,ComponentPad*
%ADD19C,1.800000*%
G04 #@! TD*
G04 #@! TA.AperFunction,ComponentPad*
%ADD20O,1.700000X1.700000*%
G04 #@! TD*
G04 #@! TA.AperFunction,ComponentPad*
%ADD21R,1.700000X4.440000*%
G04 #@! TD*
G04 #@! TA.AperFunction,SMDPad,CuDef*
%ADD22R,1.391399X0.456400*%
G04 #@! TD*
G04 #@! TA.AperFunction,ComponentPad*
%ADD23O,1.524000X4.572000*%
G04 #@! TD*
G04 #@! TA.AperFunction,ComponentPad*
%ADD24R,2.400000X2.400000*%
G04 #@! TD*
G04 #@! TA.AperFunction,ComponentPad*
%ADD25O,2.400000X2.400000*%
G04 #@! TD*
G04 #@! TA.AperFunction,ComponentPad*
%ADD26R,2.800000X2.800000*%
G04 #@! TD*
G04 #@! TA.AperFunction,ComponentPad*
%ADD27O,2.800000X2.800000*%
G04 #@! TD*
G04 #@! TA.AperFunction,ViaPad*
%ADD28C,0.800000*%
G04 #@! TD*
G04 #@! TA.AperFunction,Conductor*
%ADD29C,0.812800*%
G04 #@! TD*
G04 #@! TA.AperFunction,Conductor*
%ADD30C,0.609600*%
G04 #@! TD*
G04 #@! TA.AperFunction,Conductor*
%ADD31C,0.508000*%
G04 #@! TD*
G04 APERTURE END LIST*
D10*
X172466000Y-68326000D03*
X165100000Y-68326000D03*
X172466000Y-84074000D03*
X165100000Y-84074000D03*
X171450000Y-95758000D03*
X117475000Y-102235000D03*
X104140000Y-102235000D03*
X162560000Y-95758000D03*
X163195000Y-53594000D03*
X163195000Y-57785000D03*
X170561000Y-53594000D03*
X170561000Y-57785000D03*
X89916000Y-60833000D03*
X85725000Y-60833000D03*
X89916000Y-53467000D03*
X85725000Y-53467000D03*
X176657000Y-95758000D03*
X164592000Y-95758000D03*
X167843200Y-95758000D03*
X172466000Y-103124000D03*
X176657000Y-103124000D03*
X173482000Y-95758000D03*
X167845000Y-103378000D03*
X163576000Y-103378000D03*
D11*
X103886000Y-84836000D03*
X93081600Y-84836000D03*
D12*
X100196000Y-87172800D03*
X98866000Y-86360000D03*
X97536000Y-87172800D03*
X96206000Y-86360000D03*
D13*
X136144000Y-63974000D03*
X136144000Y-66074000D03*
D14*
X119380000Y-85725000D03*
X120650000Y-85725000D03*
D15*
X123190000Y-63500000D03*
X123190000Y-66040000D03*
X123190000Y-68580000D03*
X123190000Y-71120000D03*
X123190000Y-73660000D03*
X123190000Y-76200000D03*
X123190000Y-78740000D03*
X123190000Y-81280000D03*
X123190000Y-83820000D03*
X123190000Y-86360000D03*
X123190000Y-88900000D03*
X120650000Y-88900000D03*
X118110000Y-88900000D03*
X115570000Y-88900000D03*
X113030000Y-88900000D03*
X110490000Y-88900000D03*
X107950000Y-88900000D03*
X107950000Y-86360000D03*
X107950000Y-83820000D03*
X107950000Y-81280000D03*
X107950000Y-78740000D03*
X107950000Y-76200000D03*
X107950000Y-73660000D03*
X107950000Y-71120000D03*
X107950000Y-68580000D03*
X107950000Y-66040000D03*
X107950000Y-63500000D03*
D13*
X101888000Y-62738000D03*
X99788000Y-62738000D03*
D16*
X104902000Y-94742000D03*
D17*
X104902000Y-97242000D03*
X160822000Y-63500000D03*
D16*
X163322000Y-63500000D03*
X102108000Y-60452000D03*
D17*
X99608000Y-60452000D03*
X104394000Y-72938000D03*
D16*
X104394000Y-75438000D03*
D17*
X127000000Y-88860000D03*
D16*
X127000000Y-86360000D03*
D13*
X155990000Y-64770000D03*
X153890000Y-64770000D03*
X125095000Y-86580000D03*
X125095000Y-88680000D03*
X102074000Y-87122000D03*
X104174000Y-87122000D03*
X103666000Y-77724000D03*
X101566000Y-77724000D03*
X116620000Y-77724000D03*
X114520000Y-77724000D03*
D18*
X173355000Y-65405000D03*
D19*
X173355000Y-62865000D03*
X173990000Y-86995000D03*
D18*
X173990000Y-89535000D03*
X79502000Y-58674000D03*
D19*
X79502000Y-61214000D03*
X79248000Y-93726000D03*
D18*
X79248000Y-91186000D03*
D20*
X126238000Y-66040000D03*
D10*
X126238000Y-63500000D03*
X99060000Y-103378000D03*
X78232000Y-103378000D03*
X88646000Y-103378000D03*
D21*
X86106000Y-97790000D03*
D10*
X85090000Y-103378000D03*
X92202000Y-103378000D03*
D21*
X91186000Y-97790000D03*
D10*
X79502000Y-87630000D03*
X79502000Y-64770000D03*
X79248000Y-76200000D03*
D20*
X131826000Y-83312000D03*
D10*
X131826000Y-85852000D03*
X149606000Y-86360000D03*
X91440000Y-68834000D03*
X149606000Y-83058000D03*
X91440000Y-82804000D03*
X78994000Y-96266000D03*
X79248000Y-56134000D03*
X126492000Y-83312000D03*
D20*
X129032000Y-83312000D03*
D13*
X170976000Y-62992000D03*
X168876000Y-62992000D03*
X169130000Y-86995000D03*
X171230000Y-86995000D03*
X82042000Y-60418000D03*
X82042000Y-62518000D03*
X81788000Y-91406000D03*
X81788000Y-93506000D03*
X114520000Y-75438000D03*
X116620000Y-75438000D03*
X114520000Y-80010000D03*
X116620000Y-80010000D03*
D10*
X105664000Y-55118000D03*
D20*
X105664000Y-57658000D03*
X105664000Y-60198000D03*
D22*
X105013498Y-88677999D03*
X105013498Y-89677999D03*
X105013498Y-90678000D03*
X105013498Y-91678001D03*
X105013498Y-92678001D03*
X99710502Y-92678001D03*
X99710502Y-91678001D03*
X99710502Y-90678000D03*
X99710502Y-89677999D03*
X99710502Y-88677999D03*
X99964502Y-79533999D03*
X99964502Y-80533999D03*
X99964502Y-81534000D03*
X99964502Y-82534001D03*
X99964502Y-83534001D03*
X105267498Y-83534001D03*
X105267498Y-82534001D03*
X105267498Y-81534000D03*
X105267498Y-80533999D03*
X105267498Y-79533999D03*
X152288502Y-70580001D03*
X152288502Y-69580001D03*
X152288502Y-68580000D03*
X152288502Y-67579999D03*
X152288502Y-66579999D03*
X157591498Y-66579999D03*
X157591498Y-67579999D03*
X157591498Y-68580000D03*
X157591498Y-69580001D03*
X157591498Y-70580001D03*
X97678502Y-64547999D03*
X97678502Y-65547999D03*
X97678502Y-66548000D03*
X97678502Y-67548001D03*
X97678502Y-68548001D03*
X102981498Y-68548001D03*
X102981498Y-67548001D03*
X102981498Y-66548000D03*
X102981498Y-65547999D03*
X102981498Y-64547999D03*
D23*
X158750000Y-57150000D03*
X108585000Y-57150000D03*
X126365000Y-76200000D03*
X176530000Y-76200000D03*
X107950000Y-95250000D03*
X158115000Y-95250000D03*
D24*
X142240000Y-62484000D03*
D25*
X142240000Y-88484000D03*
D26*
X129794000Y-67310000D03*
D27*
X139954000Y-67310000D03*
D26*
X139192000Y-63500000D03*
D27*
X129032000Y-63500000D03*
D28*
X153670000Y-62865000D03*
X105664000Y-86868000D03*
X154940000Y-70485000D03*
X102870000Y-88988607D03*
X102616000Y-81788000D03*
X118618000Y-83058000D03*
X97536000Y-78994000D03*
X100330000Y-69596000D03*
X167132000Y-63500000D03*
X104140000Y-63246000D03*
X81280000Y-70358000D03*
X95758000Y-77470000D03*
X102870000Y-70358000D03*
X150114000Y-68834000D03*
X150876000Y-67564000D03*
D29*
X124875000Y-86360000D02*
X125095000Y-86580000D01*
X123190000Y-86360000D02*
X124875000Y-86360000D01*
X125315000Y-86360000D02*
X125095000Y-86580000D01*
X127000000Y-86360000D02*
X125315000Y-86360000D01*
D30*
X153670000Y-64550000D02*
X153890000Y-64770000D01*
X153670000Y-62865000D02*
X153670000Y-64550000D01*
X148336000Y-69596000D02*
X149320001Y-70580001D01*
X148336000Y-67056000D02*
X148336000Y-69596000D01*
X149320001Y-70580001D02*
X152288502Y-70580001D01*
X150622000Y-64770000D02*
X148336000Y-67056000D01*
X153890000Y-64770000D02*
X150622000Y-64770000D01*
D31*
X105267498Y-79533999D02*
X104425999Y-79533999D01*
X103666000Y-78774000D02*
X103666000Y-77724000D01*
X104425999Y-79533999D02*
X103666000Y-78774000D01*
X103666000Y-76166000D02*
X104394000Y-75438000D01*
X103666000Y-77724000D02*
X103666000Y-76166000D01*
D30*
X101888000Y-60672000D02*
X102108000Y-60452000D01*
X101888000Y-62738000D02*
X101888000Y-60672000D01*
X102108000Y-60452000D02*
X104013000Y-60452000D01*
X131318000Y-86360000D02*
X131826000Y-85852000D01*
X127000000Y-86360000D02*
X131318000Y-86360000D01*
X101888000Y-63454501D02*
X102981498Y-64547999D01*
X101888000Y-62738000D02*
X101888000Y-63454501D01*
X104267000Y-60198000D02*
X104013000Y-60452000D01*
X105664000Y-60198000D02*
X104267000Y-60198000D01*
D29*
X108962808Y-61337808D02*
X110490000Y-62865000D01*
X117475000Y-62865000D02*
X120650000Y-66040000D01*
X106803808Y-61337808D02*
X108962808Y-61337808D01*
X110490000Y-62865000D02*
X117475000Y-62865000D01*
X120650000Y-83820000D02*
X123190000Y-86360000D01*
X105664000Y-60198000D02*
X106803808Y-61337808D01*
X118110000Y-75438000D02*
X120650000Y-77978000D01*
X116620000Y-75438000D02*
X118110000Y-75438000D01*
X120650000Y-77978000D02*
X120650000Y-83820000D01*
X120650000Y-66040000D02*
X120650000Y-77978000D01*
D31*
X104428000Y-86868000D02*
X104174000Y-87122000D01*
X105664000Y-86868000D02*
X104428000Y-86868000D01*
X105013498Y-87961498D02*
X104174000Y-87122000D01*
X105013498Y-88677999D02*
X105013498Y-87961498D01*
D29*
X107950000Y-95250000D02*
X107950000Y-94615000D01*
X107950000Y-94615000D02*
X110490000Y-92075000D01*
X110490000Y-92075000D02*
X118745000Y-92075000D01*
X120650000Y-90170000D02*
X120650000Y-88900000D01*
X118745000Y-92075000D02*
X120650000Y-90170000D01*
X120650000Y-88900000D02*
X123190000Y-88900000D01*
X124875000Y-88900000D02*
X125095000Y-88680000D01*
X123190000Y-88900000D02*
X124875000Y-88900000D01*
X125275000Y-88860000D02*
X125095000Y-88680000D01*
X127000000Y-88860000D02*
X125275000Y-88860000D01*
D30*
X154940000Y-66675000D02*
X154940000Y-70485000D01*
X155990000Y-64770000D02*
X155990000Y-65625000D01*
X155990000Y-65625000D02*
X154940000Y-66675000D01*
X157591498Y-66371498D02*
X155990000Y-64770000D01*
X157591498Y-66579999D02*
X157591498Y-66371498D01*
X154844999Y-66579999D02*
X154940000Y-66675000D01*
X152288502Y-66579999D02*
X154844999Y-66579999D01*
D31*
X156625000Y-65405000D02*
X155990000Y-64770000D01*
X173355000Y-65405000D02*
X156625000Y-65405000D01*
D30*
X101566000Y-91596002D02*
X102647999Y-92678001D01*
X102647999Y-92678001D02*
X99710502Y-92678001D01*
X105013498Y-92678001D02*
X102647999Y-92678001D01*
X109886999Y-92678001D02*
X110490000Y-92075000D01*
X105013498Y-92678001D02*
X109886999Y-92678001D01*
D31*
X101566000Y-77724000D02*
X101566000Y-80484000D01*
X101566000Y-80484000D02*
X102870000Y-81788000D01*
X101123999Y-83534001D02*
X99964502Y-83534001D01*
X102870000Y-81788000D02*
X101123999Y-83534001D01*
X102870000Y-82340202D02*
X102870000Y-81788000D01*
X104063799Y-83534001D02*
X102870000Y-82340202D01*
X105267498Y-83534001D02*
X104063799Y-83534001D01*
D30*
X99788000Y-60632000D02*
X99608000Y-60452000D01*
X99788000Y-62738000D02*
X99788000Y-60632000D01*
X157260000Y-63500000D02*
X155990000Y-64770000D01*
X160822000Y-63500000D02*
X157260000Y-63500000D01*
D31*
X102870000Y-88988607D02*
X101654607Y-90204000D01*
D30*
X101566000Y-90204000D02*
X101566000Y-91596002D01*
D31*
X101654607Y-90204000D02*
X101566000Y-90204000D01*
D30*
X101566000Y-87122000D02*
X101566000Y-90204000D01*
D31*
X116620000Y-80010000D02*
X116620000Y-77724000D01*
X173990000Y-89535000D02*
X153543000Y-89535000D01*
X152492000Y-88484000D02*
X142240000Y-88484000D01*
X153543000Y-89535000D02*
X152492000Y-88484000D01*
D29*
X129032000Y-63500000D02*
X126238000Y-63500000D01*
D30*
X117602000Y-87122000D02*
X116620000Y-86140000D01*
X118872000Y-87122000D02*
X117602000Y-87122000D01*
X120650000Y-88900000D02*
X118872000Y-87122000D01*
X118618000Y-83058000D02*
X116806000Y-84870000D01*
X116620000Y-84870000D02*
X116620000Y-80010000D01*
X116806000Y-84870000D02*
X116620000Y-84870000D01*
X116620000Y-86140000D02*
X116620000Y-84870000D01*
X99788000Y-63974000D02*
X99788000Y-62738000D01*
X100298001Y-64484001D02*
X99788000Y-63974000D01*
X97678502Y-68548001D02*
X99091999Y-68548001D01*
X99091999Y-68548001D02*
X100298001Y-67341999D01*
X100298001Y-67341999D02*
X100298001Y-64484001D01*
X101504003Y-68548001D02*
X100298001Y-67341999D01*
X102981498Y-68548001D02*
X101504003Y-68548001D01*
X104394000Y-72938000D02*
X101386000Y-72938000D01*
X99091999Y-70643999D02*
X99091999Y-68548001D01*
X101386000Y-72938000D02*
X99091999Y-70643999D01*
X101566000Y-73118000D02*
X101386000Y-72938000D01*
X101566000Y-77724000D02*
X101566000Y-73118000D01*
X104902000Y-97242000D02*
X104608000Y-97242000D01*
X104608000Y-97242000D02*
X102616000Y-95250000D01*
X102616000Y-92710000D02*
X102647999Y-92678001D01*
X102616000Y-95250000D02*
X102616000Y-92710000D01*
D31*
X107950000Y-86360000D02*
X106426000Y-87884000D01*
X106217197Y-90678000D02*
X105013498Y-90678000D01*
X106426000Y-90469197D02*
X106217197Y-90678000D01*
X106426000Y-87884000D02*
X106426000Y-90469197D01*
X171103000Y-62865000D02*
X170976000Y-62992000D01*
X173355000Y-62865000D02*
X171103000Y-62865000D01*
X171230000Y-86995000D02*
X173990000Y-86995000D01*
X79502000Y-61214000D02*
X80264000Y-61214000D01*
X81060000Y-60418000D02*
X82042000Y-60418000D01*
X80264000Y-61214000D02*
X81060000Y-60418000D01*
X81568000Y-93726000D02*
X81788000Y-93506000D01*
X79248000Y-93726000D02*
X81568000Y-93726000D01*
D30*
X87122000Y-97790000D02*
X86106000Y-97790000D01*
X87122000Y-101346000D02*
X87122000Y-97790000D01*
X85090000Y-103378000D02*
X87122000Y-101346000D01*
X92202000Y-103378000D02*
X92202000Y-102870000D01*
X90170000Y-97790000D02*
X91186000Y-97790000D01*
X90170000Y-100584000D02*
X90170000Y-97790000D01*
X92202000Y-102616000D02*
X90170000Y-100584000D01*
X92202000Y-103378000D02*
X92202000Y-102616000D01*
X157591498Y-69580001D02*
X160385001Y-69580001D01*
X160385001Y-69580001D02*
X161290000Y-70485000D01*
X163449000Y-68326000D02*
X161290000Y-70485000D01*
X165100000Y-68326000D02*
X163449000Y-68326000D01*
X166370000Y-71120000D02*
X165735000Y-70485000D01*
X169926000Y-80010000D02*
X172466000Y-80010000D01*
X172466000Y-80010000D02*
X173482000Y-78994000D01*
X173482000Y-78994000D02*
X173482000Y-73406000D01*
X165735000Y-70485000D02*
X161290000Y-70485000D01*
X171196000Y-71120000D02*
X166370000Y-71120000D01*
X173482000Y-73406000D02*
X171196000Y-71120000D01*
X165862000Y-84074000D02*
X169926000Y-80010000D01*
X165100000Y-84074000D02*
X165862000Y-84074000D01*
D31*
X95250000Y-71374000D02*
X91694000Y-74930000D01*
X96250001Y-65547999D02*
X95250000Y-66548000D01*
X95250000Y-66548000D02*
X95250000Y-71374000D01*
X97678502Y-65547999D02*
X96250001Y-65547999D01*
X91694000Y-74930000D02*
X81788000Y-74930000D01*
X79502000Y-72644000D02*
X79502000Y-64770000D01*
X81788000Y-74930000D02*
X79502000Y-72644000D01*
X79502000Y-87630000D02*
X79502000Y-80010000D01*
X79502000Y-80010000D02*
X77216000Y-77724000D01*
X77216000Y-74930000D02*
X79502000Y-72644000D01*
X77216000Y-77724000D02*
X77216000Y-74930000D01*
X96474803Y-67548001D02*
X96266000Y-67756804D01*
X96266000Y-72644000D02*
X92710000Y-76200000D01*
X96266000Y-67756804D02*
X96266000Y-72644000D01*
X92710000Y-76200000D02*
X90170000Y-76200000D01*
X97678502Y-67548001D02*
X96474803Y-67548001D01*
X90170000Y-76200000D02*
X79248000Y-76200000D01*
X105013498Y-91678001D02*
X106695999Y-91678001D01*
X107950000Y-90424000D02*
X107950000Y-88900000D01*
X106695999Y-91678001D02*
X107950000Y-90424000D01*
X106664001Y-82534001D02*
X107950000Y-83820000D01*
X105267498Y-82534001D02*
X106664001Y-82534001D01*
X107696000Y-81534000D02*
X107950000Y-81280000D01*
X105267498Y-81534000D02*
X107696000Y-81534000D01*
X97536000Y-78994000D02*
X96774000Y-78994000D01*
X96774000Y-78994000D02*
X92964000Y-82804000D01*
X92964000Y-82804000D02*
X91440000Y-82804000D01*
X107950000Y-76200000D02*
X111760000Y-76200000D01*
X112522000Y-75438000D02*
X114520000Y-75438000D01*
X111760000Y-76200000D02*
X112522000Y-75438000D01*
X114520000Y-75438000D02*
X114520000Y-77724000D01*
X114520000Y-80010000D02*
X114520000Y-77724000D01*
X107950000Y-73660000D02*
X107696000Y-73660000D01*
X107696000Y-73660000D02*
X105410000Y-71374000D01*
X105410000Y-71374000D02*
X103632000Y-71374000D01*
X103632000Y-71374000D02*
X103378000Y-71628000D01*
X103378000Y-71628000D02*
X102362000Y-71628000D01*
X102362000Y-71628000D02*
X100330000Y-69596000D01*
X168876000Y-62992000D02*
X167640000Y-62992000D01*
X167640000Y-62992000D02*
X167132000Y-63500000D01*
X158877000Y-86995000D02*
X169130000Y-86995000D01*
X151384000Y-79502000D02*
X158877000Y-86995000D01*
X125984000Y-79502000D02*
X151384000Y-79502000D01*
X124714000Y-78232000D02*
X125984000Y-79502000D01*
X124714000Y-77724000D02*
X124714000Y-78232000D01*
X123190000Y-76200000D02*
X124714000Y-77724000D01*
X149606000Y-83058000D02*
X141224000Y-83058000D01*
X141224000Y-83058000D02*
X138684000Y-80518000D01*
X138684000Y-80518000D02*
X125222000Y-80518000D01*
X123444000Y-78740000D02*
X123190000Y-78740000D01*
X125222000Y-80518000D02*
X123444000Y-78740000D01*
X123190000Y-81280000D02*
X124714000Y-81280000D01*
X124714000Y-81280000D02*
X124968000Y-81534000D01*
X124968000Y-81534000D02*
X135128000Y-81534000D01*
X135128000Y-81534000D02*
X139446000Y-85852000D01*
X149098000Y-85852000D02*
X149606000Y-86360000D01*
X139446000Y-85852000D02*
X149098000Y-85852000D01*
D29*
X142240000Y-62484000D02*
X142240000Y-61976000D01*
X140081000Y-60325000D02*
X142240000Y-62484000D01*
X108585000Y-57150000D02*
X108585000Y-58420000D01*
X139192000Y-61214000D02*
X140081000Y-60325000D01*
X139192000Y-61214000D02*
X139192000Y-63500000D01*
X136618000Y-63500000D02*
X136144000Y-63974000D01*
X139192000Y-63500000D02*
X136618000Y-63500000D01*
X108585000Y-59309000D02*
X108585000Y-57150000D01*
X109601000Y-60325000D02*
X108585000Y-59309000D01*
X140081000Y-60325000D02*
X109601000Y-60325000D01*
X108077000Y-57658000D02*
X108585000Y-57150000D01*
X105664000Y-57658000D02*
X108077000Y-57658000D01*
D31*
X107696000Y-63246000D02*
X107950000Y-63500000D01*
X104140000Y-63246000D02*
X107696000Y-63246000D01*
X82042000Y-62518000D02*
X82042000Y-66548000D01*
X81280000Y-67310000D02*
X81280000Y-70358000D01*
X82042000Y-66548000D02*
X81280000Y-67310000D01*
X105918000Y-66040000D02*
X107950000Y-66040000D01*
X105410000Y-66548000D02*
X105918000Y-66040000D01*
X102981498Y-66548000D02*
X105410000Y-66548000D01*
X102981498Y-67548001D02*
X105648001Y-67548001D01*
X106680000Y-68580000D02*
X107950000Y-68580000D01*
X105648001Y-67548001D02*
X106680000Y-68580000D01*
X106680000Y-71120000D02*
X107950000Y-71120000D01*
X105918000Y-70358000D02*
X106680000Y-71120000D01*
X102870000Y-70358000D02*
X105918000Y-70358000D01*
X95758000Y-77470000D02*
X83312000Y-77470000D01*
X81788000Y-78994000D02*
X81788000Y-91406000D01*
X83312000Y-77470000D02*
X81788000Y-78994000D01*
X150368000Y-68580000D02*
X150114000Y-68834000D01*
X152288502Y-68580000D02*
X150368000Y-68580000D01*
X150891999Y-67579999D02*
X150876000Y-67564000D01*
X152288502Y-67579999D02*
X150891999Y-67579999D01*
D29*
X126365000Y-74295000D02*
X126365000Y-76200000D01*
X140208000Y-72136000D02*
X128524000Y-72136000D01*
X150749000Y-61595000D02*
X140208000Y-72136000D01*
X155575000Y-61595000D02*
X150749000Y-61595000D01*
X158750000Y-58420000D02*
X155575000Y-61595000D01*
X128524000Y-72136000D02*
X126365000Y-74295000D01*
X158750000Y-57150000D02*
X158750000Y-58420000D01*
X127508000Y-67310000D02*
X126238000Y-66040000D01*
X129794000Y-67310000D02*
X127508000Y-67310000D01*
X137380000Y-67310000D02*
X136144000Y-66074000D01*
X139954000Y-67310000D02*
X137380000Y-67310000D01*
D30*
X160385001Y-67579999D02*
X161290000Y-66675000D01*
X157591498Y-67579999D02*
X160385001Y-67579999D01*
X172212000Y-69850000D02*
X170688000Y-69850000D01*
X170688000Y-69850000D02*
X167513000Y-66675000D01*
X161290000Y-66675000D02*
X167513000Y-66675000D01*
X172466000Y-69596000D02*
X172212000Y-69850000D01*
X172466000Y-68326000D02*
X172466000Y-69596000D01*
X172466000Y-82042000D02*
X172466000Y-84074000D01*
X174625000Y-72263000D02*
X174625000Y-79883000D01*
X174625000Y-79883000D02*
X172466000Y-82042000D01*
X172212000Y-69850000D02*
X174625000Y-72263000D01*
D31*
X98536001Y-91678001D02*
X99710502Y-91678001D01*
X98044000Y-91186000D02*
X98536001Y-91678001D01*
X98044000Y-90678000D02*
X98044000Y-91186000D01*
X96206000Y-88840000D02*
X98044000Y-90678000D01*
X96206000Y-86360000D02*
X96206000Y-88840000D01*
X98567999Y-89677999D02*
X99710502Y-89677999D01*
X97536000Y-88646000D02*
X98567999Y-89677999D01*
X97536000Y-87172800D02*
X97536000Y-88646000D01*
X97536000Y-81758802D02*
X98760803Y-80533999D01*
X97536000Y-84582000D02*
X97536000Y-81758802D01*
X98760803Y-80533999D02*
X99964502Y-80533999D01*
X98866000Y-85912000D02*
X97536000Y-84582000D01*
X98866000Y-86360000D02*
X98866000Y-85912000D01*
X99075999Y-82534001D02*
X99964502Y-82534001D01*
X98552000Y-84074000D02*
X98552000Y-83058000D01*
X100196000Y-85718000D02*
X98552000Y-84074000D01*
X98552000Y-83058000D02*
X99075999Y-82534001D01*
X100196000Y-87172800D02*
X100196000Y-85718000D01*
M02*
